Lexend-wght700.ufo
<glyph name="exclam" format="2">
  <advance width="321"/>
  <unicode hex="0021"/>
  <note>
exclam
</note>
  <outline>
    <contour>
      <point x="213.66666666666666" y="257.6666666666667" type="qcurve"/>
      <point x="107.0" y="257.6666666666667" type="line"/>
      <point x="94.0" y="348.3333333333333"/>
      <point x="71.0" y="548.6666666666666"/>
      <point x="71.0" y="633.3333333333334" type="qcurve"/>
      <point x="71.0" y="713.3333333333334" type="line"/>
      <point x="249.66666666666666" y="713.3333333333334" type="line"/>
      <point x="249.66666666666666" y="633.3333333333334" type="line" smooth="yes"/>
      <point x="249.66666666666666" y="543.6666666666666"/>
      <point x="226.66666666666666" y="345.3333333333333"/>
    </contour>
    <component base="period" xOffset="29.333333333333332"/>
  </outline>
</glyph>
<glyph name="numbersign" format="2">
  <advance width="743"/>
  <unicode hex="0023"/>
  <note>
numbersign
</note>
  <outline>
    <contour>
      <point x="256.3333333333333" y="0.0" type="line"/>
      <point x="107.0" y="0.0" type="line"/>
      <point x="227.0" y="700.0" type="line"/>
      <point x="376.3333333333333" y="700.0" type="line"/>
    </contour>
    <contour>
      <point x="693.0" y="426.3333333333333" type="line"/>
      <point x="88.33333333333333" y="426.3333333333333" type="line"/>
      <point x="88.33333333333333" y="562.6666666666666" type="line"/>
      <point x="693.0" y="562.6666666666666" type="line"/>
    </contour>
    <contour>
      <point x="517.6666666666666" y="0.0" type="line"/>
      <point x="368.3333333333333" y="0.0" type="line"/>
      <point x="488.3333333333333" y="700.0" type="line"/>
      <point x="637.6666666666666" y="700.0" type="line"/>
    </contour>
    <contour>
      <point x="656.0" y="146.33333333333334" type="line"/>
      <point x="50.33333333333333" y="146.33333333333334" type="line"/>
      <point x="50.33333333333333" y="282.6666666666667" type="line"/>
      <point x="656.0" y="282.6666666666667" type="line"/>
    </contour>
  </outline>
</glyph>
<glyph name="percent" format="2">
  <advance width="989"/>
  <unicode hex="0025"/>
  <note>
percent
</note>
  <outline>
    <contour>
      <point x="398.3333333333333" y="524.6666666666666" type="qcurve"/>
      <point x="398.3333333333333" y="441.3333333333333"/>
      <point x="296.3333333333333" y="329.0"/>
      <point x="219.66666666666666" y="329.0" type="qcurve"/>
      <point x="141.66666666666666" y="329.0"/>
      <point x="40.0" y="440.6666666666667"/>
      <point x="40.0" y="524.6666666666666" type="qcurve"/>
      <point x="40.0" y="611.0"/>
      <point x="140.0" y="721.6666666666666"/>
      <point x="220.0" y="721.6666666666666" type="qcurve"/>
      <point x="299.3333333333333" y="721.6666666666666"/>
      <point x="398.3333333333333" y="611.0"/>
    </contour>
    <contour>
      <point x="169.0" y="524.6666666666666" type="qcurve"/>
      <point x="169.0" y="484.6666666666667"/>
      <point x="195.66666666666666" y="436.0"/>
      <point x="220.0" y="436.0" type="qcurve"/>
      <point x="243.33333333333334" y="436.0"/>
      <point x="269.0" y="484.3333333333333"/>
      <point x="269.0" y="524.6666666666666" type="qcurve"/>
      <point x="269.0" y="565.6666666666666"/>
      <point x="243.33333333333334" y="614.3333333333334"/>
      <point x="219.66666666666666" y="614.3333333333334" type="qcurve"/>
      <point x="196.33333333333331" y="614.3333333333334"/>
      <point x="169.0" y="565.3333333333334"/>
    </contour>
    <contour>
      <point x="945.6666666666666" y="186.0" type="qcurve"/>
      <point x="945.6666666666666" y="102.66666666666667"/>
      <point x="844.0" y="-9.666666666666666"/>
      <point x="767.3333333333333" y="-9.666666666666666" type="qcurve"/>
      <point x="689.6666666666666" y="-9.666666666666666"/>
      <point x="587.3333333333334" y="102.33333333333333"/>
      <point x="587.3333333333334" y="186.0" type="qcurve"/>
      <point x="587.3333333333334" y="272.3333333333333"/>
      <point x="687.3333333333334" y="383.0"/>
      <point x="767.3333333333333" y="383.0" type="qcurve"/>
      <point x="846.6666666666666" y="383.0"/>
      <point x="945.6666666666666" y="272.3333333333333"/>
    </contour>
    <contour>
      <point x="716.3333333333333" y="186.0" type="qcurve"/>
      <point x="716.3333333333333" y="146.0"/>
      <point x="743.0" y="97.0"/>
      <point x="767.3333333333333" y="97.0" type="qcurve"/>
      <point x="790.6666666666666" y="97.0"/>
      <point x="816.6666666666666" y="146.0"/>
      <point x="816.6666666666666" y="186.0" type="qcurve"/>
      <point x="816.6666666666666" y="226.66666666666666"/>
      <point x="790.6666666666666" y="275.6666666666667"/>
      <point x="767.3333333333333" y="275.6666666666667" type="qcurve"/>
      <point x="743.6666666666666" y="275.6666666666667"/>
      <point x="716.3333333333333" y="227.0"/>
    </contour>
    <component base="fraction" xOffset="184.33333333333331"/>
  </outline>
</glyph>
<glyph name="ampersand" format="2">
  <advance width="752"/>
  <unicode hex="0026"/>
  <note>
ampersand
</note>
  <outline>
    <contour>
      <point x="313.3333333333333" y="-10.0" type="qcurve" smooth="yes"/>
      <point x="193.66666666666666" y="-10.0"/>
      <point x="33.333333333333336" y="122.0"/>
      <point x="33.333333333333336" y="219.33333333333334" type="qcurve" smooth="yes"/>
      <point x="33.333333333333336" y="291.0"/>
      <point x="117.793161992368" y="407.53240809917736"/>
      <point x="201.0" y="438.0" type="qcurve"/>
      <point x="306.3333333333333" y="337.6666666666667" type="line"/>
      <point x="256.6608914523867" y="326.40950964008994"/>
      <point x="209.66666666666666" y="272.6666666666667"/>
      <point x="209.66666666666666" y="230.33333333333334" type="qcurve" smooth="yes"/>
      <point x="209.66666666666666" y="181.33333333333334"/>
      <point x="273.64261168384877" y="125.0"/>
      <point x="329.3333333333333" y="125.0" type="qcurve" smooth="yes"/>
      <point x="406.92380952380955" y="125.0"/>
      <point x="519.6661366839982" y="248.32315766609815"/>
      <point x="528.6666666666666" y="349.0" type="qcurve"/>
      <point x="687.3333333333334" y="349.0" type="line"/>
      <point x="664.9923524466985" y="188.27847045095334"/>
      <point x="461.6666666666667" y="-10.0"/>
    </contour>
    <contour>
      <point x="765.6666666666666" y="0.0" type="line"/>
      <point x="557.0" y="0.0" type="line"/>
      <point x="496.6666666666667" y="62.66666666666667" type="line"/>
      <point x="428.6666666666667" y="124.33333333333333" type="line"/>
      <point x="256.3333333333333" y="305.3333333333333" type="line"/>
      <point x="186.33333333333334" y="385.3333333333333"/>
      <point x="148.0" y="484.3333333333333"/>
      <point x="148.0" y="527.3333333333334" type="qcurve" smooth="yes"/>
      <point x="148.0" y="609.0"/>
      <point x="274.6666666666667" y="716.6666666666666"/>
      <point x="375.0" y="716.6666666666666" type="qcurve" smooth="yes"/>
      <point x="451.3333333333333" y="716.6666666666666"/>
      <point x="574.3333333333334" y="643.6666666666666"/>
      <point x="594.6666666666666" y="583.6666666666666" type="qcurve"/>
      <point x="460.0" y="504.3333333333333" type="line"/>
      <point x="443.6666666666667" y="544.3333333333334"/>
      <point x="408.6666666666667" y="570.3333333333334"/>
      <point x="383.0" y="570.3333333333334" type="qcurve" smooth="yes"/>
      <point x="353.6666666666667" y="570.3333333333334"/>
      <point x="325.3333333333333" y="541.0"/>
      <point x="325.3333333333333" y="513.6666666666666" type="qcurve" smooth="yes"/>
      <point x="325.3333333333333" y="478.3333333333333"/>
      <point x="424.3333333333333" y="364.0"/>
      <point x="472.0" y="309.6666666666667" type="qcurve" smooth="yes"/>
      <point x="538.3333333333334" y="235.0" type="line"/>
      <point x="604.6666666666666" y="170.66666666666666" type="line"/>
    </contour>
  </outline>
</glyph>
<glyph name="parenleft" format="2">
  <advance width="393"/>
  <unicode hex="0028"/>
  <note>
parenleft
</note>
  <outline>
    <contour>
      <point x="40.0" y="258.0" type="qcurve" smooth="yes"/>
      <point x="40.0" y="397.0"/>
      <point x="169.0" y="626.0"/>
      <point x="291.0" y="702.0" type="qcurve"/>
      <point x="386.6666666666667" y="613.3333333333334" type="line"/>
      <point x="296.0" y="551.0"/>
      <point x="208.33333333333331" y="364.0"/>
      <point x="208.33333333333331" y="258.0" type="qcurve" smooth="yes"/>
      <point x="208.33333333333331" y="152.0"/>
      <point x="296.0" y="-35.0"/>
      <point x="386.6666666666667" y="-97.33333333333334" type="qcurve"/>
      <point x="290.0" y="-186.0" type="line"/>
      <point x="168.0" y="-110.0"/>
      <point x="40.0" y="118.0"/>
    </contour>
  </outline>
</glyph>
<glyph name="asterisk" format="2">
  <advance width="387"/>
  <unicode hex="002A"/>
  <note>
asterisk
</note>
  <outline>
    <contour>
      <point x="247.33333333333334" y="369.3333333333333" type="line"/>
      <point x="145.66666666666666" y="369.3333333333333" type="line"/>
      <point x="153.66666666666666" y="487.6666666666667" type="line"/>
      <point x="171.33333333333334" y="485.0" type="line"/>
      <point x="67.0" y="405.6666666666667" type="line"/>
      <point x="20.0" y="495.3333333333333" type="line"/>
      <point x="136.0" y="544.0" type="line"/>
      <point x="135.33333333333334" y="529.6666666666666" type="line"/>
      <point x="19.333333333333336" y="581.0" type="line"/>
      <point x="66.66666666666667" y="669.6666666666666" type="line"/>
      <point x="171.33333333333334" y="590.3333333333334" type="line"/>
      <point x="153.66666666666666" y="588.3333333333334" type="line"/>
      <point x="145.66666666666666" y="706.6666666666666" type="line"/>
      <point x="247.33333333333334" y="706.6666666666666" type="line"/>
      <point x="239.66666666666666" y="587.6666666666666" type="line"/>
      <point x="221.0" y="588.3333333333334" type="line"/>
      <point x="320.0" y="669.0" type="line"/>
      <point x="367.0" y="580.0" type="line"/>
      <point x="250.66666666666666" y="531.6666666666666" type="line"/>
      <point x="250.66666666666666" y="548.0" type="line"/>
      <point x="366.6666666666667" y="495.6666666666667" type="line"/>
      <point x="319.6666666666667" y="406.3333333333333" type="line"/>
      <point x="220.33333333333334" y="486.3333333333333" type="line"/>
      <point x="240.0" y="485.0" type="line"/>
    </contour>
  </outline>
</glyph>
<glyph name="plus" format="2">
  <advance width="598"/>
  <unicode hex="002B"/>
  <note>
plus
</note>
  <outline>
    <contour>
      <point x="556.0" y="212.33333333333334" type="line"/>
      <point x="41.666666666666664" y="212.33333333333334" type="line"/>
      <point x="41.666666666666664" y="355.6666666666667" type="line"/>
      <point x="556.0" y="355.6666666666667" type="line"/>
    </contour>
    <contour>
      <point x="377.6666666666667" y="38.666666666666664" type="line"/>
      <point x="219.33333333333334" y="38.666666666666664" type="line"/>
      <point x="219.33333333333334" y="528.3333333333334" type="line"/>
      <point x="377.6666666666667" y="528.3333333333334" type="line"/>
    </contour>
  </outline>
</glyph>
<glyph name="hyphen" format="2">
  <advance width="457"/>
  <unicode hex="002D"/>
  <note>
hyphen
</note>
  <outline>
    <contour>
      <point x="405.66666666666663" y="210.33333333333334" type="line"/>
      <point x="51.0" y="210.33333333333334" type="line"/>
      <point x="51.0" y="364.3333333333333" type="line"/>
      <point x="405.66666666666663" y="364.3333333333333" type="line"/>
    </contour>
  </outline>
</glyph>
<glyph name="period" format="2">
  <advance width="228"/>
  <unicode hex="002E"/>
  <note>
period
</note>
  <outline>
    <contour>
      <point x="183" y="64" type="qcurve" smooth="yes"/>
      <point x="183" y="31"/>
      <point x="145" y="-11"/>
      <point x="114" y="-11" type="qcurve" smooth="yes"/>
      <point x="81" y="-11"/>
      <point x="45" y="28"/>
      <point x="45" y="64" type="qcurve" smooth="yes"/>
      <point x="45" y="97"/>
      <point x="83" y="139"/>
      <point x="114" y="139" type="qcurve" smooth="yes"/>
      <point x="147" y="139"/>
      <point x="183" y="100"/>
    </contour>
  </outline>
</glyph>
<glyph name="zero" format="2">
  <advance width="706"/>
  <unicode hex="0030"/>
  <outline>
    <contour>
      <point x="657.0" y="350.0" type="qcurve"/>
      <point x="657.0" y="179.33333333333334"/>
      <point x="497.66666666666663" y="-10.0"/>
      <point x="352.3333333333333" y="-10.0" type="qcurve"/>
      <point x="207.0" y="-10.0"/>
      <point x="48.666666666666664" y="179.33333333333334"/>
      <point x="48.666666666666664" y="350.0" type="qcurve"/>
      <point x="48.666666666666664" y="520.6666666666666"/>
      <point x="207.0" y="710.0"/>
      <point x="352.3333333333333" y="710.0" type="qcurve"/>
      <point x="497.66666666666663" y="710.0"/>
      <point x="657.0" y="520.6666666666666"/>
    </contour>
    <contour>
      <point x="219.33333333333331" y="350.0" type="qcurve"/>
      <point x="219.33333333333331" y="249.66666666666666"/>
      <point x="288.6666666666667" y="141.33333333333331"/>
      <point x="352.3333333333333" y="141.33333333333331" type="qcurve"/>
      <point x="416.0" y="141.33333333333331"/>
      <point x="485.3333333333333" y="249.66666666666666"/>
      <point x="485.3333333333333" y="350.0" type="qcurve"/>
      <point x="485.3333333333333" y="453.6666666666667"/>
      <point x="416.0" y="565.3333333333334"/>
      <point x="352.3333333333333" y="565.3333333333334" type="qcurve"/>
      <point x="288.6666666666667" y="565.3333333333334"/>
      <point x="219.33333333333331" y="453.6666666666667"/>
    </contour>
  </outline>
</glyph>
<glyph name="six" format="2">
  <advance width="583"/>
  <unicode hex="0036"/>
  <outline>
    <contour>
      <point x="558.0" y="260.0" type="qcurve" smooth="yes"/>
      <point x="558.0" y="148.66666666666666"/>
      <point x="408.6666666666667" y="0.0"/>
      <point x="295.6666666666667" y="0.0" type="qcurve"/>
      <point x="186.33333333333334" y="0.0"/>
      <point x="33.333333333333336" y="148.0"/>
      <point x="33.333333333333336" y="254.33333333333334" type="qcurve" smooth="yes"/>
      <point x="33.333333333333336" y="329.6666666666667"/>
      <point x="93.66666666666667" y="463.6666666666667"/>
      <point x="142.33333333333334" y="544.6666666666666" type="qcurve"/>
      <point x="241.33333333333334" y="710.6666666666666" type="line"/>
      <point x="407.0" y="710.6666666666666" type="line"/>
      <point x="411.0" y="700.6666666666666" type="line"/>
      <point x="271.0" y="481.6666666666667" type="line" smooth="yes"/>
      <point x="234.66666666666666" y="423.6666666666667"/>
      <point x="191.24192432480672" y="321.0796871155404"/>
      <point x="163.33333333333334" y="260.0" type="qcurve"/>
      <point x="130.0" y="323.0" type="line"/>
      <point x="147.33333333333334" y="396.3333333333333"/>
      <point x="277.6666666666667" y="489.0"/>
      <point x="339.3333333333333" y="489.0" type="qcurve" smooth="yes"/>
      <point x="428.3333333333333" y="489.0"/>
      <point x="558.0" y="353.0"/>
    </contour>
    <contour>
      <point x="192.66666666666666" y="252.66666666666666" type="qcurve" smooth="yes"/>
      <point x="192.66666666666666" y="207.0"/>
      <point x="252.0" y="146.66666666666666"/>
      <point x="298.3333333333333" y="146.66666666666666" type="qcurve"/>
      <point x="343.6666666666667" y="146.66666666666666"/>
      <point x="402.6666666666667" y="205.33333333333334"/>
      <point x="402.6666666666667" y="252.33333333333334" type="qcurve" smooth="yes"/>
      <point x="402.6666666666667" y="293.0"/>
      <point x="342.0" y="355.6666666666667"/>
      <point x="299.0" y="355.6666666666667" type="qcurve" smooth="yes"/>
      <point x="252.33333333333334" y="355.6666666666667"/>
      <point x="192.66666666666666" y="295.6666666666667"/>
    </contour>
  </outline>
</glyph>
<glyph name="colon" format="2">
  <advance width="268"/>
  <unicode hex="003A"/>
  <note>
colon
</note>
  <outline>
    <contour>
      <point x="203" y="460" type="qcurve" smooth="yes"/>
      <point x="203" y="427"/>
      <point x="165" y="385"/>
      <point x="134" y="385" type="qcurve" smooth="yes"/>
      <point x="101" y="385"/>
      <point x="65" y="424"/>
      <point x="65" y="460" type="qcurve" smooth="yes"/>
      <point x="65" y="493"/>
      <point x="103" y="535"/>
      <point x="134" y="535" type="qcurve" smooth="yes"/>
      <point x="167" y="535"/>
      <point x="203" y="496"/>
    </contour>
    <contour>
      <point x="203" y="64" type="qcurve" smooth="yes"/>
      <point x="203" y="31"/>
      <point x="165" y="-11"/>
      <point x="134" y="-11" type="qcurve" smooth="yes"/>
      <point x="101" y="-11"/>
      <point x="65" y="28"/>
      <point x="65" y="64" type="qcurve" smooth="yes"/>
      <point x="65" y="97"/>
      <point x="103" y="139"/>
      <point x="134" y="139" type="qcurve" smooth="yes"/>
      <point x="167" y="139"/>
      <point x="203" y="100"/>
    </contour>
  </outline>
</glyph>
<glyph name="semicolon" format="2">
  <advance width="289"/>
  <unicode hex="003B"/>
  <note>
semicolon
</note>
  <outline>
    <contour>
      <point x="243.0" y="450.6666666666667" type="qcurve" smooth="yes"/>
      <point x="243.0" y="410.3333333333333"/>
      <point x="193.66666666666666" y="359.0"/>
      <point x="154.0" y="359.0" type="qcurve" smooth="yes"/>
      <point x="111.66666666666667" y="359.0"/>
      <point x="65.0" y="406.6666666666667"/>
      <point x="65.0" y="450.6666666666667" type="qcurve" smooth="yes"/>
      <point x="65.0" y="491.0"/>
      <point x="114.33333333333333" y="542.3333333333334"/>
      <point x="154.0" y="542.3333333333334" type="qcurve" smooth="yes"/>
      <point x="196.33333333333331" y="542.3333333333334"/>
      <point x="243.0" y="494.6666666666667"/>
    </contour>
    <component base="comma" xOffset="13.666666666666664"/>
  </outline>
</glyph>
<glyph name="less" format="2">
  <advance width="524"/>
  <unicode hex="003C"/>
  <note>
less
</note>
  <outline>
    <contour>
      <point x="98.0" y="218.0" type="line"/>
      <point x="98.0" y="285.0" type="line"/>
      <point x="457.0" y="79.0" type="line"/>
      <point x="409.0" y="4.0" type="line"/>
      <point x="48.0" y="211.0" type="line"/>
      <point x="48.0" y="292.0" type="line"/>
      <point x="409.0" y="499.0" type="line"/>
      <point x="457.0" y="424.0" type="line"/>
    </contour>
  </outline>
</glyph>
<glyph name="A" format="2">
  <advance width="690"/>
  <unicode hex="0041"/>
  <note>
A
</note>
  <anchor x="347" y="0" name="bottom"/>
  <anchor x="604" y="10" name="ogonek"/>
  <anchor x="347" y="700" name="top"/>
  <outline>
    <contour>
      <point x="327" y="496" type="qcurve"/>
      <point x="361" y="496" type="line"/>
      <point x="348.0" y="433.0"/>
      <point x="326.0" y="367.0"/>
      <point x="302" y="306" type="qcurve"/>
      <point x="190" y="0" type="line"/>
      <point x="-20" y="0" type="line"/>
      <point x="261" y="700" type="line"/>
      <point x="431" y="700" type="line"/>
      <point x="710" y="0" type="line"/>
      <point x="496" y="0" type="line"/>
      <point x="384" y="306" type="line" smooth="yes"/>
      <point x="361.0" y="368.0"/>
      <point x="340.0" y="433.0"/>
    </contour>
    <contour>
      <point x="545" y="104" type="line"/>
      <point x="140" y="104" type="line"/>
      <point x="183" y="251" type="line"/>
      <point x="498" y="251" type="line"/>
    </contour>
  </outline>
</glyph>
<glyph name="E" format="2">
  <advance width="668"/>
  <unicode hex="0045"/>
  <note>
E
</note>
  <anchor x="334" y="0" name="bottom"/>
  <anchor x="487" y="10" name="ogonek"/>
  <anchor x="329" y="700" name="top"/>
  <anchor x="58" y="700" name="topleft"/>
  <outline>
    <contour>
      <point x="287" y="0" type="line"/>
      <point x="80" y="0" type="line"/>
      <point x="80" y="700" type="line"/>
      <point x="287" y="700" type="line"/>
    </contour>
    <contour>
      <point x="621" y="0" type="line"/>
      <point x="183" y="0" type="line"/>
      <point x="183" y="175" type="line"/>
      <point x="621" y="175" type="line"/>
    </contour>
    <contour>
      <point x="566" y="272" type="line"/>
      <point x="183" y="272" type="line"/>
      <point x="183" y="436" type="line"/>
      <point x="566" y="436" type="line"/>
    </contour>
    <contour>
      <point x="603" y="525" type="line"/>
      <point x="183" y="525" type="line"/>
      <point x="183" y="700" type="line"/>
      <point x="603" y="700" type="line"/>
    </contour>
  </outline>
</glyph>
<glyph name="F" format="2">
  <advance width="621"/>
  <unicode hex="0046"/>
  <note>
F
</note>
  <outline>
    <contour>
      <point x="86.0" y="0.0" type="line"/>
      <point x="86.0" y="700.0" type="line"/>
      <point x="266.0" y="700.0" type="line"/>
      <point x="266.0" y="0.0" type="line"/>
    </contour>
    <contour>
      <point x="533.0" y="263.3333333333333" type="line"/>
      <point x="170.66666666666666" y="263.3333333333333" type="line"/>
      <point x="170.66666666666666" y="411.3333333333333" type="line"/>
      <point x="533.0" y="411.3333333333333" type="line"/>
    </contour>
    <contour>
      <point x="572.6666666666666" y="542.6666666666666" type="line"/>
      <point x="170.66666666666666" y="542.6666666666666" type="line"/>
      <point x="170.66666666666666" y="700.0" type="line"/>
      <point x="572.6666666666666" y="700.0" type="line"/>
    </contour>
  </outline>
</glyph>
<glyph name="G" format="2">
  <advance width="784"/>
  <unicode hex="0047"/>
  <note>
G
</note>
  <anchor x="413.0" y="0" name="bottom"/>
  <anchor x="400.0" y="700.0" name="top"/>
  <outline>
    <contour>
      <point x="42.666666666666664" y="353.3333333333333" type="qcurve"/>
      <point x="42.666666666666664" y="509.6666666666667"/>
      <point x="255.0" y="715.3333333333334"/>
      <point x="423.3333333333333" y="715.3333333333334" type="qcurve" smooth="yes"/>
      <point x="510.6666666666667" y="715.3333333333334"/>
      <point x="655.0" y="650.0"/>
      <point x="698.6666666666666" y="600.3333333333334" type="qcurve"/>
      <point x="590.0" y="485.3333333333333" type="line"/>
      <point x="555.0" y="518.3333333333334"/>
      <point x="473.3333333333333" y="557.6666666666666"/>
      <point x="421.3333333333333" y="557.6666666666666" type="qcurve" smooth="yes"/>
      <point x="338.3333333333333" y="557.6666666666666"/>
      <point x="227.33333333333331" y="441.6666666666667"/>
      <point x="227.33333333333331" y="353.3333333333333" type="qcurve"/>
      <point x="227.33333333333331" y="265.6666666666667"/>
      <point x="343.0" y="147.66666666666666"/>
      <point x="428.6666666666667" y="147.66666666666666" type="qcurve" smooth="yes"/>
      <point x="489.0" y="147.66666666666666"/>
      <point x="571.6666666666666" y="219.0"/>
      <point x="571.6666666666666" y="272.0" type="qcurve" smooth="yes"/>
      <point x="571.6666666666666" y="298.0" type="line"/>
      <point x="628.6666666666666" y="261.3333333333333" type="line"/>
      <point x="405.3333333333333" y="261.3333333333333" type="line"/>
      <point x="405.3333333333333" y="398.3333333333333" type="line"/>
      <point x="738.0" y="398.3333333333333" type="line"/>
      <point x="740.3333333333334" y="381.3333333333333"/>
      <point x="743.0" y="313.0"/>
      <point x="743.0" y="299.0" type="qcurve" smooth="yes"/>
      <point x="743.0" y="163.06547795800154"/>
      <point x="555.3840937135809" y="-10.0"/>
      <point x="413.0" y="-10.0" type="qcurve"/>
      <point x="242.0" y="-10.0"/>
      <point x="42.666666666666664" y="196.66666666666666"/>
    </contour>
  </outline>
</glyph>
<glyph name="K" format="2">
  <advance width="744"/>
  <unicode hex="004B"/>
  <note>
K
</note>
  <anchor x="348" y="0" name="bottom"/>
  <anchor x="360" y="700" name="top"/>
  <outline>
    <contour>
      <point x="80" y="0" type="line"/>
      <point x="80" y="700" type="line"/>
      <point x="296" y="700" type="line"/>
      <point x="296" y="0" type="line"/>
    </contour>
    <contour>
      <point x="230" y="209" type="line"/>
      <point x="161" y="369" type="line"/>
      <point x="494" y="700" type="line"/>
      <point x="735" y="700" type="line"/>
    </contour>
    <contour>
      <point x="519" y="0" type="line"/>
      <point x="265" y="341" type="line"/>
      <point x="405" y="462" type="line"/>
      <point x="764" y="0" type="line"/>
    </contour>
  </outline>
</glyph>
<glyph name="M" format="2">
  <advance width="873"/>
  <unicode hex="004D"/>
  <note>
M
</note>
  <anchor x="441.0" y="0" name="bottom"/>
  <anchor x="441.0" y="700.0" name="top"/>
  <outline>
    <contour>
      <point x="86.0" y="700.0" type="line"/>
      <point x="245.33333333333331" y="700.0" type="line"/>
      <point x="500.3333333333333" y="285.0" type="line"/>
      <point x="382.6666666666667" y="286.0" type="line"/>
      <point x="640.6666666666666" y="700.0" type="line"/>
      <point x="794.0" y="700.0" type="line"/>
      <point x="794.0" y="0.0" type="line"/>
      <point x="619.3333333333334" y="0.0" type="line"/>
      <point x="619.3333333333334" y="207.0" type="line" smooth="yes"/>
      <point x="619.3333333333334" y="297.0"/>
      <point x="628.3333333333334" y="441.0"/>
      <point x="639.3333333333334" y="512.0" type="qcurve"/>
      <point x="660.0" y="457.6666666666667" type="line"/>
      <point x="471.0" y="165.0" type="line"/>
      <point x="405.0" y="165.0" type="line"/>
      <point x="220.33333333333331" y="456.33333333333337" type="line"/>
      <point x="240.66666666666666" y="512.0" type="line"/>
      <point x="251.66666666666666" y="445.0"/>
      <point x="260.6666666666667" y="304.0"/>
      <point x="260.6666666666667" y="207.0" type="qcurve"/>
      <point x="260.6666666666667" y="0.0" type="line"/>
      <point x="233.66666666666666" y="0.0"/>
      <point x="113.0" y="0.0"/>
      <point x="86.0" y="0.0" type="qcurve"/>
    </contour>
  </outline>
</glyph>
<glyph name="O" format="2">
  <advance width="817"/>
  <unicode hex="004F"/>
  <note>
O
</note>
  <anchor x="406.6666666666667" y="0" name="bottom"/>
  <anchor x="406.6666666666667" y="353.3333333333333" name="center"/>
  <anchor x="707.3333333333334" y="10.0" name="ogonek"/>
  <anchor x="406.6666666666667" y="700.0" name="top"/>
  <anchor x="42.33333333333333" y="700.0" name="topleft"/>
  <anchor x="455.0" y="702.0" name="topright"/>
  <outline>
    <contour>
      <point x="408.3333333333333" y="716.6666666666666" type="qcurve"/>
      <point x="567.6666666666666" y="716.6666666666666"/>
      <point x="774.0" y="510.6666666666667"/>
      <point x="774.0" y="353.3333333333333" type="qcurve"/>
      <point x="774.0" y="196.0"/>
      <point x="567.6666666666666" y="-10.0"/>
      <point x="408.3333333333333" y="-10.0" type="qcurve"/>
      <point x="249.0" y="-10.0"/>
      <point x="42.666666666666664" y="195.66666666666666"/>
      <point x="42.666666666666664" y="353.3333333333333" type="qcurve"/>
      <point x="42.666666666666664" y="511.0"/>
      <point x="249.0" y="716.6666666666666"/>
    </contour>
    <contour>
      <point x="408.3333333333333" y="158.33333333333331" type="qcurve" smooth="yes"/>
      <point x="487.3333333333333" y="158.33333333333331"/>
      <point x="590.6666666666666" y="268.6666666666667"/>
      <point x="590.6666666666666" y="353.3333333333333" type="qcurve"/>
      <point x="590.6666666666666" y="438.0"/>
      <point x="487.3333333333333" y="548.3333333333334"/>
      <point x="408.3333333333333" y="548.3333333333334" type="qcurve" smooth="yes"/>
      <point x="329.0" y="548.3333333333334"/>
      <point x="226.0" y="438.3333333333333"/>
      <point x="226.0" y="353.3333333333333" type="qcurve"/>
      <point x="226.0" y="268.3333333333333"/>
      <point x="329.0" y="158.33333333333331"/>
    </contour>
  </outline>
</glyph>
<glyph name="R" format="2">
  <advance width="696"/>
  <unicode hex="0052"/>
  <note>
R
</note>
  <anchor x="366.3333333333333" y="0" name="bottom"/>
  <anchor x="326.3333333333333" y="700.0" name="top"/>
  <outline>
    <contour>
      <point x="638.3333333333334" y="477.0" type="qcurve"/>
      <point x="638.3333333333334" y="375.6666666666667"/>
      <point x="501.0" y="243.0"/>
      <point x="397.3333333333333" y="243.0" type="qcurve"/>
      <point x="194.33333333333334" y="243.0" type="line"/>
      <point x="194.33333333333334" y="377.6666666666667" type="line"/>
      <point x="378.0" y="377.6666666666667" type="line"/>
      <point x="417.3333333333333" y="377.6666666666667"/>
      <point x="461.6666666666667" y="426.3333333333333"/>
      <point x="461.6666666666667" y="466.0" type="qcurve"/>
      <point x="461.6666666666667" y="505.3333333333333"/>
      <point x="411.3333333333333" y="552.0"/>
      <point x="366.0" y="552.0" type="qcurve"/>
      <point x="197.33333333333334" y="552.0" type="line"/>
      <point x="250.0" y="630.0" type="line"/>
      <point x="250.0" y="0.0" type="line"/>
      <point x="79.33333333333334" y="0.0" type="line"/>
      <point x="79.33333333333334" y="700.0" type="line"/>
      <point x="397.3333333333333" y="700.0" type="line"/>
      <point x="500.6666666666667" y="700.0"/>
      <point x="638.3333333333334" y="573.3333333333334"/>
    </contour>
    <contour>
      <point x="284.6666666666667" y="316.0" type="line"/>
      <point x="469.0" y="341.0" type="line"/>
      <point x="667.0" y="-0.33333333333333337" type="line"/>
      <point x="462.6666666666667" y="0.0" type="line"/>
    </contour>
  </outline>
</glyph>
<glyph name="S" format="2">
  <advance width="635"/>
  <unicode hex="0053"/>
  <note>
S
</note>
  <anchor x="317.6666666666667" y="0" name="bottom"/>
  <anchor x="317.6666666666667" y="700.0" name="top"/>
  <outline>
    <contour>
      <point x="15.333333333333336" y="130.0" type="qcurve"/>
      <point x="123.33333333333333" y="251.66666666666666" type="line"/>
      <point x="173.0" y="185.66666666666666"/>
      <point x="267.6666666666667" y="140.33333333333331"/>
      <point x="318.3333333333333" y="140.33333333333331" type="qcurve" smooth="yes"/>
      <point x="360.6666666666667" y="140.33333333333331"/>
      <point x="417.0" y="167.66666666666666"/>
      <point x="417.0" y="196.0" type="qcurve" smooth="yes"/>
      <point x="417.0" y="227.33333333333334"/>
      <point x="352.3333333333333" y="262.3333333333333"/>
      <point x="282.3333333333333" y="277.6666666666667" type="qcurve" smooth="yes"/>
      <point x="165.66666666666666" y="303.3333333333333"/>
      <point x="51.66666666666667" y="410.6666666666667"/>
      <point x="51.66666666666667" y="500.0" type="qcurve"/>
      <point x="51.66666666666667" y="597.0"/>
      <point x="213.33333333333334" y="716.6666666666666"/>
      <point x="319.3333333333333" y="716.6666666666666" type="qcurve"/>
      <point x="425.0" y="716.6666666666666"/>
      <point x="549.3333333333334" y="652.3333333333334"/>
      <point x="587.0" y="596.3333333333334" type="qcurve"/>
      <point x="477.6666666666667" y="490.6666666666667" type="line"/>
      <point x="446.3333333333333" y="527.6666666666666"/>
      <point x="370.6666666666667" y="565.0"/>
      <point x="329.6666666666667" y="565.0" type="qcurve"/>
      <point x="285.6666666666667" y="565.0"/>
      <point x="233.66666666666666" y="536.6666666666666"/>
      <point x="233.66666666666666" y="509.6666666666667" type="qcurve"/>
      <point x="233.66666666666666" y="484.6666666666667"/>
      <point x="283.3333333333333" y="451.6666666666667"/>
      <point x="351.6666666666667" y="438.3333333333333" type="qcurve" smooth="yes"/>
      <point x="461.6666666666667" y="416.6666666666667"/>
      <point x="597.6666666666666" y="315.3333333333333"/>
      <point x="597.6666666666666" y="218.66666666666666" type="qcurve" smooth="yes"/>
      <point x="597.6666666666666" y="108.66666666666667"/>
      <point x="440.6666666666667" y="-10.0"/>
      <point x="321.3333333333333" y="-10.0" type="qcurve" smooth="yes"/>
      <point x="213.33333333333334" y="-10.0"/>
      <point x="67.0" y="64.0"/>
    </contour>
  </outline>
</glyph>
<glyph name="W" format="2">
  <advance width="990"/>
  <unicode hex="0057"/>
  <note>
W
</note>
  <anchor x="452" y="0" name="bottom"/>
  <anchor x="452" y="700" name="top"/>
  <outline>
    <contour>
      <point x="189" y="0" type="line"/>
      <point x="-10" y="700" type="line"/>
      <point x="206" y="700" type="line"/>
      <point x="288" y="384" type="line" smooth="yes"/>
      <point x="304.0" y="322.0"/>
      <point x="316.0" y="222.0"/>
      <point x="316" y="194" type="qcurve"/>
      <point x="300" y="194" type="line"/>
      <point x="300.0" y="232.0"/>
      <point x="308.0" y="323.0"/>
      <point x="329" y="384" type="qcurve"/>
      <point x="416" y="631" type="line"/>
      <point x="581" y="631" type="line"/>
      <point x="668" y="384" type="line" smooth="yes"/>
      <point x="689" y="324"/>
      <point x="705" y="233"/>
      <point x="705" y="194" type="qcurve"/>
      <point x="690" y="194" type="line"/>
      <point x="690" y="223"/>
      <point x="693" y="322"/>
      <point x="709" y="384" type="qcurve"/>
      <point x="791" y="700" type="line"/>
      <point x="1000" y="700" type="line"/>
      <point x="799" y="0" type="line"/>
      <point x="629" y="0" type="line"/>
      <point x="477" y="377" type="line"/>
      <point x="504" y="377" type="line"/>
      <point x="369" y="0" type="line"/>
    </contour>
  </outline>
</glyph>
<glyph name="c" format="2">
  <advance width="554"/>
  <unicode hex="0063"/>
  <note>
c
</note>
  <anchor x="277.6666666666667" y="0" name="bottom"/>
  <anchor x="317.6666666666667" y="530.0" name="top"/>
  <outline>
    <contour>
      <point x="327.6666666666667" y="396.3333333333333" type="qcurve" smooth="yes"/>
      <point x="270.3333333333333" y="396.3333333333333"/>
      <point x="199.33333333333331" y="323.3333333333333"/>
      <point x="199.33333333333331" y="267.0" type="qcurve" smooth="yes"/>
      <point x="199.33333333333331" y="211.66666666666666"/>
      <point x="270.3333333333333" y="137.0"/>
      <point x="328.0" y="137.0" type="qcurve"/>
      <point x="366.0" y="137.0"/>
      <point x="424.3333333333333" y="166.0"/>
      <point x="446.3333333333333" y="191.66666666666666" type="qcurve"/>
      <point x="538.0" y="81.0" type="line"/>
      <point x="502.6666666666667" y="38.66666666666667"/>
      <point x="381.6666666666667" y="-10.0"/>
      <point x="312.3333333333333" y="-10.0" type="qcurve"/>
      <point x="192.0" y="-10.0"/>
      <point x="33.333333333333336" y="147.0"/>
      <point x="33.333333333333336" y="266.3333333333333" type="qcurve" smooth="yes"/>
      <point x="33.333333333333336" y="385.6666666666667"/>
      <point x="192.0" y="542.6666666666666"/>
      <point x="312.3333333333333" y="542.6666666666666" type="qcurve"/>
      <point x="383.6666666666667" y="542.6666666666666"/>
      <point x="503.3333333333333" y="494.3333333333333"/>
      <point x="538.6666666666666" y="450.0" type="qcurve"/>
      <point x="446.3333333333333" y="340.0" type="line"/>
      <point x="427.0" y="363.6666666666667"/>
      <point x="365.3333333333333" y="396.3333333333333"/>
    </contour>
  </outline>
</glyph>
<glyph name="g" format="2">
  <advance width="649"/>
  <unicode hex="0067"/>
  <note>
g
</note>
  <anchor x="327.0" y="0" name="bottom"/>
  <anchor x="327.0" y="535.0" name="top"/>
  <outline>
    <contour>
      <point x="106.0" y="-167.0" type="qcurve"/>
      <point x="144.0" y="-87.0" type="line"/>
      <point x="174.0" y="-110.0"/>
      <point x="263.0" y="-138.0"/>
      <point x="307.0" y="-138.0" type="qcurve"/>
      <point x="389.0" y="-138.0"/>
      <point x="474.0" y="-58.0"/>
      <point x="474.0" y="20.0" type="qcurve"/>
      <point x="474.0" y="121.0" type="line"/>
      <point x="485.0" y="114.0" type="line"/>
      <point x="478.0" y="68.0"/>
      <point x="365.0" y="-10.0"/>
      <point x="300.0" y="-10.0" type="qcurve"/>
      <point x="188.0" y="-10.0"/>
      <point x="40.0" y="145.0"/>
      <point x="40.0" y="263.0" type="qcurve"/>
      <point x="40.0" y="381.0"/>
      <point x="187.0" y="536.0"/>
      <point x="297.0" y="536.0" type="qcurve"/>
      <point x="329.0" y="536.0"/>
      <point x="392.0" y="517.0"/>
      <point x="420.0" y="500.0" type="qcurve" smooth="yes"/>
      <point x="454.0" y="479.0"/>
      <point x="496.0" y="423.0"/>
      <point x="496.0" y="400.0" type="qcurve"/>
      <point x="474.0" y="402.0" type="line"/>
      <point x="474.0" y="525.0" type="line"/>
      <point x="577.0" y="525.0" type="line"/>
      <point x="577.0" y="32.0" type="line"/>
      <point x="577.0" y="-93.0"/>
      <point x="433.0" y="-230.0"/>
      <point x="307.0" y="-230.0" type="qcurve"/>
      <point x="251.0" y="-230.0"/>
      <point x="140.0" y="-195.0"/>
    </contour>
    <contour>
      <point x="478.0" y="263.0" type="qcurve"/>
      <point x="478.0" y="341.0"/>
      <point x="384.0" y="442.0"/>
      <point x="311.0" y="442.0" type="qcurve"/>
      <point x="239.0" y="442.0"/>
      <point x="145.0" y="340.0"/>
      <point x="145.0" y="263.0" type="qcurve"/>
      <point x="145.0" y="186.0"/>
      <point x="239.0" y="85.0"/>
      <point x="311.0" y="85.0" type="qcurve"/>
      <point x="385.0" y="85.0"/>
      <point x="478.0" y="185.0"/>
    </contour>
  </outline>
</glyph>
<glyph name="l" format="2">
  <advance width="251"/>
  <unicode hex="006C"/>
  <note>
l
</note>
  <anchor x="122.0" y="0" name="bottom"/>
  <anchor x="122.0" y="289.0" name="center"/>
  <anchor x="123.0" y="740.0" name="top"/>
  <anchor x="229.0" y="580.0" name="topright"/>
  <outline>
    <contour>
      <point x="177.0" y="0.0" type="line"/>
      <point x="74.0" y="0.0" type="line"/>
      <point x="74.0" y="740.0" type="line"/>
      <point x="177.0" y="740.0" type="line"/>
    </contour>
  </outline>
</glyph>
<glyph name="m" format="2">
  <advance width="921"/>
  <unicode hex="006D"/>
  <note>
m
</note>
  <anchor x="466.0" y="0" name="bottom"/>
  <anchor x="466.0" y="510.0" name="top"/>
  <outline>
    <contour>
      <point x="339.0" y="534.0" type="qcurve"/>
      <point x="407.0" y="534.0"/>
      <point x="491.0" y="466.0"/>
      <point x="506.0" y="399.0" type="qcurve"/>
      <point x="490.0" y="403.0" type="line"/>
      <point x="497.0" y="420.0" type="line"/>
      <point x="519.0" y="466.0"/>
      <point x="625.0" y="534.0"/>
      <point x="680.0" y="534.0" type="qcurve"/>
      <point x="768.0" y="534.0"/>
      <point x="855.0" y="425.0"/>
      <point x="855.0" y="315.0" type="qcurve"/>
      <point x="855.0" y="0.0" type="line"/>
      <point x="751.0" y="0.0" type="line"/>
      <point x="751.0" y="309.0" type="line"/>
      <point x="751.0" y="376.0"/>
      <point x="700.0" y="439.0"/>
      <point x="646.0" y="439.0" type="qcurve"/>
      <point x="589.0" y="439.0"/>
      <point x="513.0" y="367.0"/>
      <point x="513.0" y="314.0" type="qcurve"/>
      <point x="513.0" y="0.0" type="line"/>
      <point x="409.0" y="0.0" type="line"/>
      <point x="409.0" y="311.0" type="line"/>
      <point x="409.0" y="373.0"/>
      <point x="356.0" y="439.0"/>
      <point x="306.0" y="439.0" type="qcurve"/>
      <point x="250.0" y="439.0"/>
      <point x="174.0" y="368.0"/>
      <point x="174.0" y="316.0" type="qcurve"/>
      <point x="174.0" y="0.0" type="line"/>
      <point x="70.0" y="0.0" type="line"/>
      <point x="70.0" y="525.0" type="line"/>
      <point x="174.0" y="525.0" type="line"/>
      <point x="174.0" y="413.0" type="line"/>
      <point x="155.0" y="401.0" type="line"/>
      <point x="170.0" y="453.0"/>
      <point x="277.0" y="534.0"/>
    </contour>
  </outline>
</glyph>
<glyph name="n" format="2">
  <advance width="642"/>
  <unicode hex="006E"/>
  <note>
n
</note>
  <anchor x="321.6666666666667" y="0" name="bottom"/>
  <anchor x="321.6666666666667" y="510.0" name="top"/>
  <outline>
    <contour>
      <point x="394.3333333333333" y="542.6666666666666" type="qcurve"/>
      <point x="484.3333333333333" y="542.6666666666666"/>
      <point x="579.0" y="432.3333333333333"/>
      <point x="579.0" y="326.6666666666667" type="qcurve"/>
      <point x="579.0" y="0.0" type="line"/>
      <point x="409.3333333333333" y="0.0" type="line"/>
      <point x="409.3333333333333" y="313.0" type="line"/>
      <point x="409.3333333333333" y="357.6666666666667"/>
      <point x="369.6666666666667" y="402.3333333333333"/>
      <point x="331.6666666666667" y="401.3333333333333" type="qcurve"/>
      <point x="292.0" y="401.3333333333333"/>
      <point x="240.33333333333331" y="353.3333333333333"/>
      <point x="240.33333333333331" y="318.0" type="qcurve"/>
      <point x="240.33333333333331" y="0.0" type="line"/>
      <point x="214.33333333333331" y="0.0"/>
      <point x="96.66666666666667" y="0.0"/>
      <point x="70.66666666666667" y="0.0" type="qcurve"/>
      <point x="70.66666666666667" y="531.6666666666666" type="line"/>
      <point x="230.33333333333331" y="531.6666666666666" type="line"/>
      <point x="237.0" y="423.6666666666667" type="line"/>
      <point x="202.33333333333331" y="411.6666666666667" type="line"/>
      <point x="218.0" y="467.0"/>
      <point x="328.0" y="542.6666666666666"/>
    </contour>
  </outline>
</glyph>
<glyph name="o" format="2">
  <advance width="645"/>
  <unicode hex="006F"/>
  <note>
o
</note>
  <anchor x="318.3333333333333" y="0" name="bottom"/>
  <anchor x="318.3333333333333" y="256.0" name="center"/>
  <anchor x="560.3333333333334" y="10.0" name="ogonek"/>
  <anchor x="318.3333333333333" y="513.0" name="top"/>
  <anchor x="332.3333333333333" y="531.0" name="topright"/>
  <outline>
    <contour>
      <point x="323.3333333333333" y="542.6666666666666" type="qcurve"/>
      <point x="448.0" y="542.6666666666666"/>
      <point x="611.6666666666666" y="386.3333333333333"/>
      <point x="611.6666666666666" y="266.3333333333333" type="qcurve"/>
      <point x="611.6666666666666" y="146.33333333333334"/>
      <point x="448.0" y="-10.0"/>
      <point x="323.3333333333333" y="-10.0" type="qcurve"/>
      <point x="197.66666666666666" y="-10.0"/>
      <point x="33.333333333333336" y="146.33333333333334"/>
      <point x="33.333333333333336" y="266.3333333333333" type="qcurve"/>
      <point x="33.333333333333336" y="386.3333333333333"/>
      <point x="197.66666666666666" y="542.6666666666666"/>
    </contour>
    <contour>
      <point x="323.3333333333333" y="134.66666666666666" type="qcurve"/>
      <point x="374.3333333333333" y="134.66666666666666"/>
      <point x="440.3333333333333" y="209.33333333333334"/>
      <point x="440.0" y="266.3333333333333" type="qcurve"/>
      <point x="440.3333333333333" y="324.3333333333333"/>
      <point x="374.3333333333333" y="398.6666666666667"/>
      <point x="323.3333333333333" y="398.6666666666667" type="qcurve"/>
      <point x="271.6666666666667" y="398.6666666666667"/>
      <point x="204.66666666666666" y="324.0"/>
      <point x="205.0" y="266.3333333333333" type="qcurve"/>
      <point x="204.66666666666666" y="209.33333333333334"/>
      <point x="271.6666666666667" y="134.66666666666666"/>
    </contour>
  </outline>
</glyph>
<glyph name="r" format="2">
  <advance width="463"/>
  <unicode hex="0072"/>
  <note>
r
</note>
  <anchor x="154.66666666666666" y="0" name="bottom"/>
  <anchor x="245.66666666666666" y="510.0" name="top"/>
  <outline>
    <contour>
      <point x="453.0" y="533.3333333333334" type="qcurve"/>
      <point x="406.6666666666667" y="346.0" type="line"/>
      <point x="396.0" y="352.33333333333337"/>
      <point x="357.6666666666667" y="362.6666666666667"/>
      <point x="336.3333333333333" y="362.6666666666667" type="qcurve" smooth="yes"/>
      <point x="293.6666666666667" y="362.6666666666667"/>
      <point x="240.66666666666666" y="307.0"/>
      <point x="240.66666666666666" y="262.0" type="qcurve"/>
      <point x="240.66666666666666" y="0.0" type="line"/>
      <point x="70.66666666666667" y="0.0" type="line"/>
      <point x="70.66666666666667" y="531.6666666666666" type="line"/>
      <point x="230.66666666666666" y="531.6666666666666" type="line"/>
      <point x="238.66666666666666" y="358.0" type="line"/>
      <point x="205.33333333333331" y="390.0" type="line"/>
      <point x="223.66666666666666" y="455.0"/>
      <point x="327.0" y="542.6666666666666"/>
      <point x="390.6666666666667" y="542.6666666666666" type="qcurve"/>
      <point x="408.3333333333333" y="542.6666666666666"/>
      <point x="440.0" y="537.3333333333334"/>
    </contour>
  </outline>
</glyph>
<glyph name="t" format="2">
  <advance width="387"/>
  <unicode hex="0074"/>
  <note>
t
</note>
  <anchor x="183.33333333333334" y="0" name="bottom"/>
  <anchor x="183.33333333333334" y="256.0" name="center"/>
  <anchor x="184.33333333333334" y="646.0" name="top"/>
  <anchor x="309.3333333333333" y="548.0" name="topright"/>
  <outline>
    <contour>
      <point x="274.0" y="666.3333333333334" type="line"/>
      <point x="274.0" y="0.0" type="line"/>
      <point x="104.33333333333334" y="0.0" type="line"/>
      <point x="104.33333333333334" y="666.3333333333334" type="line"/>
    </contour>
    <contour>
      <point x="380.0" y="531.6666666666666" type="line"/>
      <point x="380.0" y="385.0" type="line"/>
      <point x="19.333333333333336" y="385.0" type="line"/>
      <point x="19.333333333333336" y="531.6666666666666" type="line"/>
    </contour>
  </outline>
</glyph>
<glyph name="v" format="2">
  <advance width="590"/>
  <unicode hex="0076"/>
  <note>
v
</note>
  <anchor x="295.6666666666667" y="0" name="bottom"/>
  <anchor x="295.6666666666667" y="526.6666666666666" name="top"/>
  <outline>
    <contour>
      <point x="0.6666666666666679" y="531.6666666666666" type="line"/>
      <point x="188.33333333333331" y="531.6666666666666" type="line"/>
      <point x="315.6666666666667" y="134.66666666666666" type="line"/>
      <point x="273.3333333333333" y="131.66666666666666" type="line"/>
      <point x="403.6666666666667" y="531.6666666666666" type="line"/>
      <point x="589.6666666666666" y="531.6666666666666" type="line"/>
      <point x="356.6666666666667" y="0.0" type="line"/>
      <point x="222.66666666666666" y="0.0" type="line"/>
    </contour>
  </outline>
</glyph>
<glyph name="x" format="2">
  <advance width="613"/>
  <unicode hex="0078"/>
  <note>
x
</note>
  <anchor x="307.0" y="0" name="bottom"/>
  <anchor x="307.0" y="526.6666666666666" name="top"/>
  <outline>
    <contour>
      <point x="24.333333333333332" y="531.6666666666666" type="line"/>
      <point x="226.33333333333331" y="531.6666666666666" type="line"/>
      <point x="326.0" y="377.66666666666663" type="line"/>
      <point x="399.0" y="277.0" type="line"/>
      <point x="595.0" y="0.0" type="line"/>
      <point x="394.3333333333333" y="0.0" type="line"/>
      <point x="290.3333333333333" y="163.0" type="line"/>
      <point x="218.0" y="262.6666666666667" type="line"/>
    </contour>
    <contour>
      <point x="217.66666666666666" y="-0.33333333333333337" type="line"/>
      <point x="18.666666666666668" y="0.0" type="line"/>
      <point x="233.66666666666666" y="302.6666666666667" type="line"/>
      <point x="322.3333333333333" y="192.66666666666666" type="line"/>
    </contour>
    <contour>
      <point x="386.3333333333333" y="531.6666666666666" type="line"/>
      <point x="585.6666666666666" y="531.6666666666666" type="line"/>
      <point x="374.3333333333333" y="227.33333333333334" type="line"/>
      <point x="285.3333333333333" y="334.6666666666667" type="line"/>
    </contour>
  </outline>
</glyph>
<glyph name="y" format="2">
  <advance width="626"/>
  <unicode hex="0079"/>
  <note>
y
</note>
  <anchor x="503.3333333333333" y="0" name="bottom"/>
  <anchor x="298.3333333333333" y="510.0" name="top"/>
  <outline>
    <contour>
      <point x="338.6666666666667" y="139.66666666666666" type="qcurve"/>
      <point x="259.6666666666667" y="-21.0" type="line"/>
      <point x="5.0" y="531.6666666666666" type="line"/>
      <point x="195.66666666666666" y="531.6666666666666" type="line"/>
      <point x="299.6666666666667" y="284.3333333333333" type="line" smooth="yes"/>
      <point x="317.6666666666667" y="242.0"/>
      <point x="337.0" y="164.0"/>
    </contour>
    <contour>
      <point x="301.6666666666667" y="-230.0" type="line"/>
      <point x="120.0" y="-230.0" type="line"/>
      <point x="237.33333333333334" y="44.33333333333333" type="line"/>
      <point x="300.3333333333333" y="150.0" type="line"/>
      <point x="312.6666666666667" y="189.0"/>
      <point x="328.0" y="236.66666666666666"/>
      <point x="343.6666666666667" y="286.66666666666663" type="qcurve"/>
      <point x="430.0" y="531.6666666666666" type="line"/>
      <point x="621.3333333333334" y="531.6666666666666" type="line"/>
      <point x="394.0" y="0.0" type="line"/>
    </contour>
  </outline>
</glyph>
<glyph name="braceleft" format="2">
  <advance width="429"/>
  <unicode hex="007B"/>
  <note>
braceleft
</note>
  <outline>
    <contour>
      <point x="394.3333333333333" y="-81.0" type="qcurve"/>
      <point x="363.0" y="-206.66666666666666" type="line"/>
      <point x="260.3333333333333" y="-186.0"/>
      <point x="161.33333333333334" y="-92.0"/>
      <point x="161.33333333333334" y="-7.0" type="qcurve"/>
      <point x="162.33333333333334" y="88.0" type="line"/>
      <point x="162.33333333333334" y="136.66666666666666"/>
      <point x="118.66666666666667" y="181.66666666666666"/>
      <point x="77.66666666666667" y="182.66666666666666" type="qcurve"/>
      <point x="38.0" y="182.66666666666666" type="line"/>
      <point x="38.0" y="317.3333333333333" type="line"/>
      <point x="79.66666666666667" y="317.3333333333333" type="line"/>
      <point x="120.66666666666667" y="318.3333333333333"/>
      <point x="162.33333333333334" y="362.3333333333333"/>
      <point x="162.33333333333334" y="412.0" type="qcurve"/>
      <point x="161.33333333333334" y="507.0" type="line"/>
      <point x="161.33333333333334" y="589.0"/>
      <point x="259.3333333333333" y="684.3333333333334"/>
      <point x="363.0" y="706.6666666666666" type="qcurve"/>
      <point x="394.3333333333333" y="587.6666666666666" type="line"/>
      <point x="343.0" y="570.6666666666666"/>
      <point x="305.6666666666667" y="532.3333333333334"/>
      <point x="305.6666666666667" y="479.6666666666667" type="qcurve"/>
      <point x="307.6666666666667" y="398.0" type="line"/>
      <point x="307.6666666666667" y="340.0"/>
      <point x="244.0" y="261.3333333333333"/>
      <point x="174.0" y="242.33333333333334" type="qcurve"/>
      <point x="173.66666666666666" y="258.6666666666667" type="line"/>
      <point x="244.0" y="237.66666666666666"/>
      <point x="307.6666666666667" y="159.0"/>
      <point x="307.6666666666667" y="102.0" type="qcurve"/>
      <point x="305.6666666666667" y="20.333333333333332" type="line"/>
      <point x="305.6666666666667" y="-28.0"/>
      <point x="342.6666666666667" y="-63.66666666666667"/>
    </contour>
  </outline>
</glyph>
<glyph name="cent" format="2">
  <advance width="535"/>
  <unicode hex="00A2"/>
  <note>
cent
</note>
  <anchor x="259.0" y="88.0" name="bottom"/>
  <anchor x="299.0" y="618.0" name="top"/>
  <outline>
    <contour>
      <point x="336.0" y="107.0" type="line"/>
      <point x="336.0" y="0.0" type="line"/>
      <point x="239.0" y="0.0" type="line"/>
      <point x="239.0" y="108.0" type="line"/>
      <point x="246.0" y="145.0" type="line"/>
      <point x="246.0" y="563.0" type="line"/>
      <point x="239.0" y="606.0" type="line"/>
      <point x="239.0" y="700.0" type="line"/>
      <point x="336.0" y="700.0" type="line"/>
      <point x="336.0" y="605.0" type="line"/>
      <point x="329.0" y="572.0" type="line"/>
      <point x="329.0" y="141.0" type="line"/>
    </contour>
    <component base="c" yOffset="88"/>
  </outline>
</glyph>
<glyph name="section" format="2">
  <advance width="579"/>
  <unicode hex="00A7"/>
  <note>
section
</note>
  <outline>
    <contour>
      <point x="377.3333333333333" y="469.3333333333333" type="qcurve" smooth="yes"/>
      <point x="460.6666666666667" y="447.6666666666667"/>
      <point x="548.0" y="363.0"/>
      <point x="547.0" y="296.6666666666667" type="qcurve" smooth="yes"/>
      <point x="545.6666666666666" y="218.0"/>
      <point x="430.6666666666667" y="135.66666666666666"/>
      <point x="320.0" y="129.0" type="qcurve"/>
      <point x="385.0" y="185.0" type="line"/>
      <point x="452.0" y="146.66666666666666"/>
      <point x="503.3333333333333" y="87.0"/>
      <point x="503.3333333333333" y="41.0" type="qcurve" smooth="yes"/>
      <point x="503.3333333333333" y="-40.666666666666664"/>
      <point x="374.6666666666667" y="-145.33333333333334"/>
      <point x="272.6666666666667" y="-145.33333333333334" type="qcurve" smooth="yes"/>
      <point x="195.33333333333334" y="-145.33333333333334"/>
      <point x="69.0" y="-93.33333333333333"/>
      <point x="31.666666666666668" y="-53.333333333333336" type="qcurve"/>
      <point x="127.0" y="40.33333333333333" type="line"/>
      <point x="163.66666666666666" y="6.0"/>
      <point x="248.66666666666666" y="-22.333333333333336"/>
      <point x="281.0" y="-22.333333333333336" type="qcurve" smooth="yes"/>
      <point x="311.0" y="-22.333333333333336"/>
      <point x="341.3333333333333" y="0.0"/>
      <point x="341.3333333333333" y="21.0" type="qcurve" smooth="yes"/>
      <point x="341.3333333333333" y="44.666666666666664"/>
      <point x="290.0" y="82.66666666666667"/>
      <point x="221.0" y="100.0" type="qcurve" smooth="yes"/>
      <point x="126.66666666666667" y="123.33333333333334"/>
      <point x="32.333333333333336" y="214.66666666666666"/>
      <point x="32.333333333333336" y="284.0" type="qcurve" smooth="yes"/>
      <point x="32.333333333333336" y="344.0"/>
      <point x="127.33333333333333" y="429.6666666666667"/>
      <point x="213.0" y="437.0" type="qcurve"/>
      <point x="202.0" y="392.0" type="line"/>
      <point x="148.0" y="415.6666666666667"/>
      <point x="92.66666666666667" y="479.0"/>
      <point x="92.66666666666667" y="526.0" type="qcurve" smooth="yes"/>
      <point x="92.66666666666667" y="607.6666666666666"/>
      <point x="226.66666666666666" y="703.6666666666666"/>
      <point x="312.3333333333333" y="703.6666666666666" type="qcurve" smooth="yes"/>
      <point x="379.6666666666667" y="703.6666666666666"/>
      <point x="490.0" y="662.0"/>
      <point x="532.6666666666666" y="624.0" type="qcurve"/>
      <point x="445.0" y="525.3333333333334" type="line"/>
      <point x="419.6666666666667" y="548.3333333333334"/>
      <point x="339.0" y="581.6666666666666"/>
      <point x="306.6666666666667" y="581.6666666666666" type="qcurve" smooth="yes"/>
      <point x="283.6666666666667" y="581.6666666666666"/>
      <point x="254.0" y="559.0"/>
      <point x="254.0" y="541.0" type="qcurve" smooth="yes"/>
      <point x="254.0" y="518.0"/>
      <point x="298.0" y="490.6666666666667"/>
    </contour>
    <contour>
      <point x="195.33333333333331" y="295.3333333333333" type="qcurve" smooth="yes"/>
      <point x="195.33333333333331" y="277.3333333333333"/>
      <point x="225.33333333333334" y="249.0"/>
      <point x="256.3333333333333" y="239.0" type="qcurve"/>
      <point x="327.3333333333333" y="221.0" type="line"/>
      <point x="329.3333333333333" y="221.0"/>
      <point x="333.3333333333333" y="221.0"/>
      <point x="334.6666666666667" y="221.0" type="qcurve" smooth="yes"/>
      <point x="358.6666666666667" y="222.0"/>
      <point x="391.0" y="251.33333333333334"/>
      <point x="391.0" y="272.0" type="qcurve" smooth="yes"/>
      <point x="391.0" y="289.0"/>
      <point x="367.3333333333333" y="313.0"/>
      <point x="341.6666666666667" y="321.3333333333333" type="qcurve"/>
      <point x="261.3333333333333" y="343.0" type="line"/>
      <point x="257.0" y="344.0"/>
      <point x="250.33333333333334" y="345.0"/>
      <point x="248.0" y="345.0" type="qcurve" smooth="yes"/>
      <point x="226.33333333333334" y="345.0"/>
      <point x="195.33333333333331" y="317.0"/>
    </contour>
  </outline>
</glyph>
<glyph name="dieresis" format="2">
  <advance width="478"/>
  <unicode hex="00A8"/>
  <anchor x="240.0" y="515.0" name="_top"/>
  <outline>
    <contour>
      <point x="205.0" y="656.0" type="qcurve" smooth="yes"/>
      <point x="205.0" y="617.0"/>
      <point x="156.66666666666666" y="567.6666666666666"/>
      <point x="115.33333333333333" y="567.6666666666666" type="qcurve" smooth="yes"/>
      <point x="72.33333333333333" y="567.6666666666666"/>
      <point x="25.666666666666668" y="613.6666666666666"/>
      <point x="25.666666666666668" y="656.0" type="qcurve" smooth="yes"/>
      <point x="25.666666666666668" y="695.0"/>
      <point x="74.0" y="744.3333333333334"/>
      <point x="115.33333333333333" y="744.3333333333334" type="qcurve" smooth="yes"/>
      <point x="158.33333333333334" y="744.3333333333334"/>
      <point x="205.0" y="699.0"/>
    </contour>
    <contour>
      <point x="452.3333333333333" y="656.0" type="qcurve" smooth="yes"/>
      <point x="452.3333333333333" y="617.0"/>
      <point x="404.0" y="567.6666666666666"/>
      <point x="362.6666666666667" y="567.6666666666666" type="qcurve" smooth="yes"/>
      <point x="319.6666666666667" y="567.6666666666666"/>
      <point x="273.0" y="613.6666666666666"/>
      <point x="273.0" y="656.0" type="qcurve" smooth="yes"/>
      <point x="273.0" y="695.0"/>
      <point x="321.3333333333333" y="744.3333333333334"/>
      <point x="362.6666666666667" y="744.3333333333334" type="qcurve" smooth="yes"/>
      <point x="405.66666666666663" y="744.3333333333334"/>
      <point x="452.3333333333333" y="699.0"/>
    </contour>
  </outline>
</glyph>
<glyph name="copyright" format="2">
  <advance width="786"/>
  <unicode hex="00A9"/>
  <note>
copyright
</note>
  <outline>
    <contour>
      <point x="750.0" y="350.0" type="qcurve" smooth="yes"/>
      <point x="750.0" y="201.0"/>
      <point x="541.0" y="-7.0"/>
      <point x="393.0" y="-7.0" type="qcurve" smooth="yes"/>
      <point x="244.0" y="-7.0"/>
      <point x="36.0" y="201.0"/>
      <point x="36.0" y="350.0" type="qcurve" smooth="yes"/>
      <point x="36.0" y="499.0"/>
      <point x="244.0" y="707.0"/>
      <point x="393.0" y="707.0" type="qcurve" smooth="yes"/>
      <point x="541.0" y="707.0"/>
      <point x="750.0" y="499.0"/>
    </contour>
    <contour>
      <point x="110.0" y="350.0" type="qcurve" smooth="yes"/>
      <point x="110.0" y="232.0"/>
      <point x="275.0" y="67.0"/>
      <point x="393.0" y="67.0" type="qcurve" smooth="yes"/>
      <point x="511.0" y="67.0"/>
      <point x="676.0" y="232.0"/>
      <point x="676.0" y="350.0" type="qcurve" smooth="yes"/>
      <point x="676.0" y="469.0"/>
      <point x="511.0" y="633.0"/>
      <point x="393.0" y="633.0" type="qcurve" smooth="yes"/>
      <point x="275.0" y="633.0"/>
      <point x="110.0" y="469.0"/>
    </contour>
    <contour>
      <point x="411.0" y="142.0" type="qcurve" smooth="yes"/>
      <point x="321.0" y="142.0"/>
      <point x="197.0" y="260.0"/>
      <point x="197.0" y="350.0" type="qcurve" smooth="yes"/>
      <point x="197.0" y="436.0"/>
      <point x="321.0" y="557.0"/>
      <point x="411.0" y="557.0" type="qcurve" smooth="yes"/>
      <point x="445.0" y="557.0"/>
      <point x="511.0" y="534.0"/>
      <point x="540.0" y="512.0" type="qcurve"/>
      <point x="503.0" y="437.0" type="line"/>
      <point x="474.0" y="458.0"/>
      <point x="431.0" y="476.0"/>
      <point x="411.0" y="476.0" type="qcurve" smooth="yes"/>
      <point x="356.0" y="476.0"/>
      <point x="283.0" y="403.0"/>
      <point x="283.0" y="350.0" type="qcurve" smooth="yes"/>
      <point x="283.0" y="294.0"/>
      <point x="356.0" y="223.0"/>
      <point x="411.0" y="223.0" type="qcurve" smooth="yes"/>
      <point x="434.0" y="223.0"/>
      <point x="482.0" y="242.0"/>
      <point x="507.0" y="261.0" type="qcurve"/>
      <point x="544.0" y="185.0" type="line"/>
      <point x="514.0" y="164.0"/>
      <point x="446.0" y="142.0"/>
    </contour>
  </outline>
</glyph>
<glyph name="ordfeminine" format="2">
  <advance width="408"/>
  <unicode hex="00AA"/>
  <note>
ordfeminine
</note>
  <outline>
    <contour>
      <point x="152.33333333333334" y="390.3333333333333" type="qcurve"/>
      <point x="96.66666666666667" y="390.3333333333333"/>
      <point x="31.666666666666664" y="485.0"/>
      <point x="31.666666666666664" y="562.0" type="qcurve"/>
      <point x="31.666666666666664" y="631.0"/>
      <point x="105.66666666666667" y="721.6666666666666"/>
      <point x="164.33333333333334" y="721.6666666666666" type="qcurve"/>
      <point x="216.50485436893203" y="721.6666666666666"/>
      <point x="273.6666666666667" y="664.5185185185186"/>
      <point x="273.6666666666667" y="612.0" type="qcurve"/>
      <point x="252.0" y="648.0" type="line"/>
      <point x="252.0" y="715.0" type="line"/>
      <point x="371.6666666666667" y="715.0" type="line"/>
      <point x="371.6666666666667" y="401.0" type="line"/>
      <point x="252.0" y="401.0" type="line"/>
      <point x="252.0" y="474.0" type="line"/>
      <point x="273.6666666666667" y="492.0" type="line"/>
      <point x="273.6666666666667" y="453.8130081300813"/>
      <point x="201.0" y="390.3333333333333"/>
    </contour>
    <contour>
      <point x="150.0" y="560.0" type="qcurve"/>
      <point x="150.0" y="522.2522522522522"/>
      <point x="176.66666666666666" y="478.0"/>
      <point x="201.33333333333334" y="478.0" type="qcurve"/>
      <point x="225.66666666666666" y="478.0"/>
      <point x="256.0" y="521.4378109452737"/>
      <point x="256.0" y="557.0" type="qcurve"/>
      <point x="256.0" y="592.7391304347826"/>
      <point x="226.66666666666666" y="634.0"/>
      <point x="200.33333333333334" y="634.0" type="qcurve"/>
      <point x="179.0" y="634.0"/>
      <point x="150.0" y="590.8387096774194"/>
    </contour>
  </outline>
</glyph>
<glyph name="registered" format="2">
  <advance width="507"/>
  <unicode hex="00AE"/>
  <note>
registered
</note>
  <outline>
    <contour>
      <point x="508.6666666666667" y="484.0" type="qcurve" smooth="yes"/>
      <point x="508.6666666666667" y="378.6666666666667"/>
      <point x="362.96360989810773" y="232.33333333333334"/>
      <point x="259.6666666666667" y="232.33333333333334" type="qcurve" smooth="yes"/>
      <point x="152.53623188405797" y="232.33333333333334"/>
      <point x="3.0" y="378.6666666666667"/>
      <point x="3.0" y="484.0" type="qcurve" smooth="yes"/>
      <point x="3.0" y="589.3333333333334"/>
      <point x="153.65217391304347" y="735.6666666666666"/>
      <point x="259.6666666666667" y="735.6666666666666" type="qcurve" smooth="yes"/>
      <point x="361.8762736535662" y="735.6666666666666"/>
      <point x="508.6666666666667" y="588.3333333333334"/>
    </contour>
    <contour>
      <point x="369.3333333333333" y="529.3333333333334" type="qcurve" smooth="yes"/>
      <point x="369.3333333333333" y="494.86021505376345"/>
      <point x="318.3333333333333" y="451.0"/>
      <point x="282.0" y="451.0" type="qcurve"/>
      <point x="211.0" y="451.0" type="line"/>
      <point x="242.33333333333334" y="463.3333333333333" type="line"/>
      <point x="242.33333333333334" y="367.0" type="line"/>
      <point x="158.66666666666666" y="367.0" type="line"/>
      <point x="158.66666666666666" y="606.0" type="line"/>
      <point x="282.0" y="606.0" type="line" smooth="yes"/>
      <point x="320.94594594594594" y="606.0"/>
      <point x="369.3333333333333" y="563.4074074074074"/>
    </contour>
    <contour>
      <point x="213.0" y="502.0" type="line"/>
      <point x="262.0" y="502.0" type="line" smooth="yes"/>
      <point x="273.0" y="502.0"/>
      <point x="287.6666666666667" y="513.0"/>
      <point x="287.6666666666667" y="522.3333333333334" type="qcurve" smooth="yes"/>
      <point x="287.6666666666667" y="532.0"/>
      <point x="275.3333333333333" y="542.6666666666666"/>
      <point x="264.0" y="542.6666666666666" type="qcurve"/>
      <point x="210.0" y="542.6666666666666" type="line"/>
      <point x="242.33333333333334" y="550.6666666666666" type="line"/>
      <point x="242.33333333333334" y="495.0" type="line"/>
    </contour>
    <contour>
      <point x="76.33333333333333" y="484.0" type="qcurve" smooth="yes"/>
      <point x="76.33333333333333" y="409.47008547008545"/>
      <point x="183.66666666666666" y="306.6666666666667"/>
      <point x="259.6666666666667" y="306.6666666666667" type="qcurve" smooth="yes"/>
      <point x="334.6666666666667" y="306.6666666666667"/>
      <point x="441.0" y="409.47008547008545"/>
      <point x="441.0" y="484.0" type="qcurve" smooth="yes"/>
      <point x="441.0" y="558.5442176870748"/>
      <point x="334.6666666666667" y="662.3333333333334"/>
      <point x="259.6666666666667" y="662.3333333333334" type="qcurve" smooth="yes"/>
      <point x="183.75290215588723" y="662.3333333333334"/>
      <point x="76.33333333333333" y="558.6666666666666"/>
    </contour>
    <contour>
      <point x="295.3333333333333" y="367.0" type="line"/>
      <point x="258.3333333333333" y="453.6666666666667" type="line"/>
      <point x="328.6666666666667" y="471.0" type="line"/>
      <point x="385.3333333333333" y="367.0" type="line"/>
    </contour>
  </outline>
</glyph>
<glyph name="macron" format="2">
  <advance width="424"/>
  <unicode hex="00AF"/>
  <anchor x="199.0" y="515.0" name="_top"/>
  <outline>
    <contour>
      <point x="354.0" y="590.0" type="line"/>
      <point x="70.0" y="590.0" type="line"/>
      <point x="70.0" y="665.0" type="line"/>
      <point x="354.0" y="665.0" type="line"/>
    </contour>
  </outline>
</glyph>
<glyph name="degree" format="2">
  <advance width="532"/>
  <unicode hex="00B0"/>
  <note>
degree
</note>
  <outline>
    <contour>
      <point x="435.3333333333333" y="554.0" type="qcurve"/>
      <point x="435.3333333333333" y="486.2043010752688"/>
      <point x="337.3333333333333" y="392.3333333333333"/>
      <point x="266.0" y="392.3333333333333" type="qcurve"/>
      <point x="194.66666666666666" y="392.3333333333333"/>
      <point x="96.66666666666667" y="486.2294372294372"/>
      <point x="96.66666666666667" y="553.0" type="qcurve"/>
      <point x="96.66666666666667" y="621.8205128205128"/>
      <point x="193.0" y="715.6666666666666"/>
      <point x="266.0" y="715.6666666666666" type="qcurve"/>
      <point x="339.0" y="715.6666666666666"/>
      <point x="435.3333333333333" y="621.7956989247313"/>
    </contour>
    <contour>
      <point x="209.0" y="553.0" type="qcurve"/>
      <point x="209.0" y="527.6666666666666"/>
      <point x="242.22764227642276" y="492.6666666666667"/>
      <point x="266.0" y="492.6666666666667" type="qcurve"/>
      <point x="289.7723577235772" y="492.6666666666667"/>
      <point x="323.0" y="528.6666666666666"/>
      <point x="323.0" y="554.0" type="qcurve"/>
      <point x="323.0" y="579.3333333333334"/>
      <point x="290.0" y="614.3333333333334"/>
      <point x="266.0" y="614.3333333333334" type="qcurve"/>
      <point x="241.0" y="614.3333333333334"/>
      <point x="209.0" y="578.6666666666666"/>
    </contour>
  </outline>
</glyph>
<glyph name="ordmasculine" format="2">
  <advance width="354"/>
  <unicode hex="00BA"/>
  <note>
ordmasculine
</note>
  <outline>
    <contour>
      <point x="176.0" y="710.0" type="qcurve"/>
      <point x="243.0" y="710.0"/>
      <point x="334.0" y="617.0"/>
      <point x="334.0" y="549.0" type="qcurve"/>
      <point x="334.0" y="482.0"/>
      <point x="244.0" y="392.0"/>
      <point x="176.0" y="392.0" type="qcurve"/>
      <point x="109.0" y="392.0"/>
      <point x="20.0" y="481.0"/>
      <point x="20.0" y="549.0" type="qcurve"/>
      <point x="20.0" y="618.0"/>
      <point x="109.0" y="710.0"/>
    </contour>
    <contour>
      <point x="176.0" y="463.0" type="qcurve"/>
      <point x="207.0" y="463.0"/>
      <point x="245.0" y="511.0"/>
      <point x="245.0" y="549.0" type="qcurve"/>
      <point x="245.0" y="589.0"/>
      <point x="207.0" y="639.0"/>
      <point x="176.0" y="639.0" type="qcurve"/>
      <point x="145.0" y="639.0"/>
      <point x="108.0" y="589.0"/>
      <point x="108.0" y="549.0" type="qcurve"/>
      <point x="108.0" y="511.0"/>
      <point x="146.0" y="463.0"/>
    </contour>
  </outline>
</glyph>
<glyph name="Thorn" format="2">
  <advance width="660"/>
  <unicode hex="00DE"/>
  <note>
Thorn
</note>
  <anchor x="311.0" y="0" name="bottom"/>
  <anchor x="311.0" y="700.0" name="top"/>
  <outline>
    <contour>
      <point x="79.33333333333334" y="700.0" type="line"/>
      <point x="259.3333333333333" y="700.0" type="line"/>
      <point x="259.3333333333333" y="0.0" type="line"/>
      <point x="79.33333333333334" y="0.0" type="line"/>
    </contour>
    <contour>
      <point x="199.33333333333334" y="119.0" type="line"/>
      <point x="198.33333333333334" y="276.3333333333333" type="line"/>
      <point x="357.0" y="276.3333333333333" type="line" smooth="yes"/>
      <point x="389.6666666666667" y="276.3333333333333"/>
      <point x="433.6666666666667" y="320.6666666666667"/>
      <point x="433.6666666666667" y="356.6666666666667" type="qcurve" smooth="yes"/>
      <point x="433.6666666666667" y="392.6666666666667"/>
      <point x="389.6666666666667" y="433.6666666666667"/>
      <point x="357.0" y="433.6666666666667" type="qcurve"/>
      <point x="181.66666666666666" y="433.6666666666667" type="line"/>
      <point x="172.0" y="591.0" type="line"/>
      <point x="384.3333333333333" y="591.0" type="line" smooth="yes"/>
      <point x="484.6666666666667" y="591.0"/>
      <point x="618.3333333333334" y="459.3333333333333"/>
      <point x="618.3333333333334" y="359.3333333333333" type="qcurve" smooth="yes"/>
      <point x="618.3333333333334" y="256.0"/>
      <point x="484.6666666666667" y="119.0"/>
      <point x="384.3333333333333" y="119.0" type="qcurve"/>
    </contour>
  </outline>
</glyph>
<glyph name="germandbls" format="2">
  <advance width="699"/>
  <unicode hex="00DF"/>
  <note>
germandbls
</note>
  <outline>
    <contour>
      <point x="195.33333333333334" y="358.0" type="line"/>
      <point x="41.666666666666664" y="358.0" type="line"/>
      <point x="41.666666666666664" y="502.3333333333333" type="line"/>
      <point x="195.33333333333334" y="502.3333333333333" type="line"/>
    </contour>
    <contour>
      <point x="286.0" y="0.0" type="line"/>
      <point x="118.33333333333333" y="0.0" type="line"/>
      <point x="118.33333333333333" y="499.0" type="line"/>
      <point x="118.33333333333333" y="604.0"/>
      <point x="249.0" y="734.0"/>
      <point x="366.6666666666667" y="734.0" type="qcurve"/>
      <point x="462.3333333333333" y="734.0"/>
      <point x="592.3333333333334" y="645.0"/>
      <point x="592.3333333333334" y="564.0" type="qcurve"/>
      <point x="592.3333333333334" y="514.3333333333334"/>
      <point x="532.0" y="418.0"/>
      <point x="479.0" y="395.0" type="qcurve"/>
      <point x="477.0" y="435.6666666666667" type="line"/>
      <point x="561.0" y="409.3333333333333"/>
      <point x="665.3333333333334" y="291.0"/>
      <point x="665.3333333333334" y="203.0" type="qcurve" smooth="yes"/>
      <point x="665.3333333333334" y="112.0"/>
      <point x="541.0" y="-10.0"/>
      <point x="445.3333333333333" y="-10.0" type="qcurve" smooth="yes"/>
      <point x="404.6666666666667" y="-10.0"/>
      <point x="340.6666666666667" y="14.333333333333334"/>
      <point x="316.3333333333333" y="38.333333333333336" type="qcurve"/>
      <point x="381.0" y="157.33333333333331" type="line"/>
      <point x="398.0" y="144.0"/>
      <point x="424.6666666666667" y="134.0"/>
      <point x="439.3333333333333" y="134.0" type="qcurve"/>
      <point x="468.0" y="134.0"/>
      <point x="501.6666666666667" y="170.66666666666666"/>
      <point x="501.6666666666667" y="203.66666666666666" type="qcurve" smooth="yes"/>
      <point x="501.6666666666667" y="251.66666666666666"/>
      <point x="440.6666666666667" y="308.6666666666667"/>
      <point x="360.6666666666667" y="343.0" type="qcurve"/>
      <point x="360.6666666666667" y="431.3333333333333" type="line"/>
      <point x="400.3333333333333" y="449.0"/>
      <point x="433.6666666666667" y="489.3333333333333"/>
      <point x="433.6666666666667" y="518.3333333333334" type="qcurve"/>
      <point x="433.6666666666667" y="548.6666666666666"/>
      <point x="394.0" y="580.6666666666666"/>
      <point x="360.0" y="580.6666666666666" type="qcurve"/>
      <point x="323.0" y="580.6666666666666"/>
      <point x="286.0" y="535.3333333333334"/>
      <point x="286.0" y="497.3333333333333" type="qcurve"/>
    </contour>
  </outline>
</glyph>
<glyph name="ae" format="2">
  <advance width="899"/>
  <unicode hex="00E6"/>
  <note>
ae
</note>
  <anchor x="410.0" y="0" name="bottom"/>
  <anchor x="452.0" y="515.0" name="top"/>
  <outline>
    <contour>
      <point x="288.0" y="542.6666666666666" type="qcurve"/>
      <point x="384.3333333333333" y="542.6666666666666"/>
      <point x="498.0" y="455.6666666666667"/>
      <point x="498.0" y="364.0" type="qcurve"/>
      <point x="498.0" y="249.0" type="line"/>
      <point x="349.6666666666667" y="247.0" type="line"/>
      <point x="349.6666666666667" y="328.6666666666667" type="line"/>
      <point x="349.6666666666667" y="367.6666666666667"/>
      <point x="303.6888888888889" y="401.6666666666667"/>
      <point x="262.0" y="401.6666666666667" type="qcurve"/>
      <point x="223.5686274509804" y="401.6666666666667"/>
      <point x="169.84474281007093" y="373.9426846889433"/>
      <point x="146.66666666666666" y="340.6666666666667" type="qcurve"/>
      <point x="47.666666666666664" y="438.3333333333333" type="line"/>
      <point x="84.83312264227753" y="484.88697604615163"/>
      <point x="210.20883534136547" y="542.6666666666666"/>
    </contour>
    <contour>
      <point x="500.6666666666667" y="277.3333333333333" type="qcurve"/>
      <point x="500.6666666666667" y="215.0"/>
      <point x="586.0243309002433" y="137.33333333333331"/>
      <point x="661.3333333333334" y="137.33333333333331" type="qcurve" smooth="yes"/>
      <point x="696.3333333333334" y="137.33333333333331"/>
      <point x="750.6666666666666" y="155.33333333333331"/>
      <point x="781.0" y="178.66666666666666" type="qcurve"/>
      <point x="853.0" y="66.33333333333333" type="line"/>
      <point x="803.6666666666666" y="26.0"/>
      <point x="697.0" y="-10.0"/>
      <point x="642.6666666666666" y="-10.0" type="qcurve" smooth="yes"/>
      <point x="509.0" y="-10.0"/>
      <point x="353.0" y="144.0"/>
      <point x="353.0" y="264.3333333333333" type="qcurve"/>
      <point x="353.0" y="385.6666666666667"/>
      <point x="502.6666666666667" y="542.6666666666666"/>
      <point x="616.3333333333334" y="542.6666666666666" type="qcurve" smooth="yes"/>
      <point x="727.6666666666666" y="542.3333333333334"/>
      <point x="866.3333333333334" y="389.6666666666667"/>
      <point x="866.3333333333334" y="272.3333333333333" type="qcurve"/>
      <point x="865.3333333333334" y="223.66666666666666" type="line"/>
      <point x="274.3333333333333" y="223.66666666666666" type="line" smooth="yes"/>
      <point x="236.0" y="223.66666666666666"/>
      <point x="195.0" y="191.52380952380952"/>
      <point x="195.0" y="163.0" type="qcurve"/>
      <point x="195.0" y="140.40404040404042"/>
      <point x="227.66666666666666" y="111.33333333333333"/>
      <point x="253.33333333333331" y="111.33333333333333" type="qcurve"/>
      <point x="290.6666666666667" y="111.33333333333333"/>
      <point x="352.3333333333333" y="147.0"/>
      <point x="368.6666666666667" y="178.0" type="qcurve"/>
      <point x="422.6666666666667" y="93.66666666666667" type="line"/>
      <point x="391.6666666666667" y="45.0"/>
      <point x="273.3333333333333" y="-10.0"/>
      <point x="209.33333333333334" y="-10.0" type="qcurve"/>
      <point x="131.91011235955057" y="-10.0"/>
      <point x="28.0" y="77.0"/>
      <point x="28.0" y="149.0" type="qcurve"/>
      <point x="28.0" y="229.66666666666666"/>
      <point x="149.01412429378533" y="312.6666666666667"/>
      <point x="267.3333333333333" y="312.3333333333333" type="qcurve"/>
      <point x="719.0" y="312.3333333333333" type="line"/>
      <point x="710.6666666666666" y="301.3333333333333" type="line"/>
      <point x="710.6666666666666" y="321.3333333333333" type="line"/>
      <point x="709.0" y="357.0"/>
      <point x="658.0" y="402.3333333333333"/>
      <point x="619.0" y="402.3333333333333" type="qcurve"/>
      <point x="561.4074074074074" y="402.3333333333333"/>
      <point x="500.6666666666667" y="337.0"/>
    </contour>
  </outline>
</glyph>
<glyph name="eth" format="2">
  <advance width="601"/>
  <unicode hex="00F0"/>
  <note>
eth
</note>
  <outline>
    <contour>
      <point x="567.3333333333334" y="289.0" type="qcurve"/>
      <point x="567.3333333333334" y="157.36781609195404"/>
      <point x="419.60649819494586" y="-7.0"/>
      <point x="299.0" y="-7.0" type="qcurve"/>
      <point x="181.93501805054152" y="-7.0"/>
      <point x="33.333333333333336" y="145.0"/>
      <point x="33.333333333333336" y="255.33333333333334" type="qcurve"/>
      <point x="33.333333333333336" y="360.6666666666667"/>
      <point x="187.33333333333334" y="514.6666666666666"/>
      <point x="288.3333333333333" y="514.6666666666666" type="qcurve"/>
      <point x="363.3333333333333" y="514.6666666666666"/>
      <point x="466.6666666666667" y="425.0"/>
      <point x="481.3333333333333" y="348.0" type="qcurve"/>
      <point x="378.0" y="379.0" type="line"/>
      <point x="372.6666666666667" y="487.0"/>
      <point x="279.3333333333333" y="609.0"/>
      <point x="169.0" y="642.0" type="qcurve"/>
      <point x="217.66666666666666" y="746.6666666666666" type="line"/>
      <point x="377.5648715317377" y="708.0245289481757"/>
      <point x="567.3333333333334" y="471.34475374732335"/>
    </contour>
    <contour>
      <point x="190.33333333333331" y="262.0" type="qcurve"/>
      <point x="190.33333333333331" y="208.33333333333334"/>
      <point x="254.0" y="135.66666666666666"/>
      <point x="300.3333333333333" y="135.66666666666666" type="qcurve"/>
      <point x="346.6666666666667" y="135.66666666666666"/>
      <point x="410.3333333333333" y="208.33333333333334"/>
      <point x="410.3333333333333" y="262.0" type="qcurve"/>
      <point x="410.3333333333333" y="313.6666666666667"/>
      <point x="346.6666666666667" y="385.3333333333333"/>
      <point x="300.3333333333333" y="385.3333333333333" type="qcurve"/>
      <point x="254.0" y="385.3333333333333"/>
      <point x="190.33333333333331" y="314.6666666666667"/>
    </contour>
    <contour>
      <point x="363.0" y="560.6666666666666" type="line"/>
      <point x="149.33333333333334" y="510.0" type="line"/>
      <point x="136.33333333333334" y="575.0" type="line"/>
      <point x="298.0" y="616.6666666666666" type="line"/>
      <point x="355.6666666666667" y="650.0" type="line"/>
      <point x="501.6666666666667" y="683.0" type="line"/>
      <point x="519.6666666666666" y="617.0" type="line"/>
      <point x="406.6666666666667" y="591.0" type="line"/>
    </contour>
  </outline>
</glyph>
<glyph name="divide" format="2">
  <advance width="597"/>
  <unicode hex="00F7"/>
  <note>
divide
</note>
  <outline>
    <contour>
      <point x="555.6666666666666" y="197.0" type="line"/>
      <point x="42.0" y="197.0" type="line"/>
      <point x="42.0" y="333.6666666666667" type="line"/>
      <point x="555.6666666666666" y="333.6666666666667" type="line"/>
    </contour>
    <contour>
      <point x="391.3333333333333" y="58.66666666666667" type="qcurve" smooth="yes"/>
      <point x="391.3333333333333" y="20.333333333333336"/>
      <point x="339.58543417366946" y="-29.666666666666664"/>
      <point x="297.0" y="-29.666666666666664" type="qcurve" smooth="yes"/>
      <point x="253.80392156862743" y="-29.666666666666664"/>
      <point x="202.33333333333334" y="17.66666666666667"/>
      <point x="202.33333333333334" y="58.66666666666667" type="qcurve" smooth="yes"/>
      <point x="202.33333333333334" y="97.0"/>
      <point x="254.41456582633052" y="147.0"/>
      <point x="297.0" y="147.0" type="qcurve" smooth="yes"/>
      <point x="340.19607843137254" y="147.0"/>
      <point x="391.3333333333333" y="99.66666666666667"/>
    </contour>
    <contour>
      <point x="391.3333333333333" y="470.6666666666667" type="qcurve" smooth="yes"/>
      <point x="391.3333333333333" y="432.6666666666667"/>
      <point x="339.25210084033614" y="382.6666666666667"/>
      <point x="297.0" y="382.6666666666667" type="qcurve" smooth="yes"/>
      <point x="253.80392156862743" y="382.6666666666667"/>
      <point x="202.33333333333334" y="430.0"/>
      <point x="202.33333333333334" y="470.6666666666667" type="qcurve" smooth="yes"/>
      <point x="202.33333333333334" y="509.0"/>
      <point x="254.41456582633052" y="559.3333333333334"/>
      <point x="297.0" y="559.3333333333334" type="qcurve" smooth="yes"/>
      <point x="340.19607843137254" y="559.3333333333334"/>
      <point x="391.3333333333333" y="511.6666666666667"/>
    </contour>
  </outline>
</glyph>
<glyph name="Aogonek" format="2">
  <advance width="692"/>
  <unicode hex="0104"/>
  <outline>
    <contour>
      <point x="583.0" y="7.0" type="line"/>
      <point x="517.0" y="0.0" type="line"/>
      <point x="390.6666666666667" y="344.6666666666667" type="line" smooth="yes"/>
      <point x="384.0" y="361.33333333333337"/>
      <point x="372.6666666666667" y="393.0"/>
      <point x="365.3333333333333" y="416.33333333333337" type="qcurve" smooth="yes"/>
      <point x="357.3333333333333" y="440.0"/>
      <point x="344.6666666666667" y="479.0"/>
      <point x="337.6666666666667" y="505.33333333333337" type="qcurve"/>
      <point x="353.0" y="505.6666666666667" type="line"/>
      <point x="344.3333333333333" y="478.6666666666667"/>
      <point x="330.6666666666667" y="437.33333333333337"/>
      <point x="321.6666666666667" y="411.6666666666667" type="qcurve" smooth="yes"/>
      <point x="314.3333333333333" y="389.6666666666667"/>
      <point x="303.0" y="359.6666666666667"/>
      <point x="297.0" y="343.33333333333337" type="qcurve" smooth="yes"/>
      <point x="171.33333333333331" y="0.0" type="line"/>
      <point x="-5.0" y="0.0" type="line"/>
      <point x="270.6666666666667" y="700.0" type="line"/>
      <point x="424.0" y="700.0" type="line"/>
      <point x="691.6666666666666" y="16.0" type="line"/>
      <point x="687.6666666666666" y="0.0" type="line"/>
      <point x="640.3333333333334" y="-14.666666666666668"/>
      <point x="580.6666666666666" y="-59.0"/>
      <point x="580.6666666666666" y="-83.33333333333334" type="qcurve" smooth="yes"/>
      <point x="580.6666666666666" y="-96.0"/>
      <point x="597.6666666666666" y="-112.66666666666667"/>
      <point x="611.6666666666666" y="-112.66666666666667" type="qcurve" smooth="yes"/>
      <point x="622.3333333333334" y="-112.66666666666667"/>
      <point x="641.6666666666666" y="-100.66666666666667"/>
      <point x="652.6666666666666" y="-88.66666666666667" type="qcurve"/>
      <point x="713.0" y="-155.66666666666666" type="line"/>
      <point x="691.3333333333334" y="-180.33333333333334"/>
      <point x="628.3333333333334" y="-217.0"/>
      <point x="591.6666666666666" y="-217.0" type="qcurve" smooth="yes"/>
      <point x="537.0" y="-217.0"/>
      <point x="465.6666666666667" y="-155.66666666666666"/>
      <point x="465.6666666666667" y="-106.66666666666667" type="qcurve" smooth="yes"/>
      <point x="465.6666666666667" y="-70.33333333333333"/>
      <point x="523.3333333333334" y="-2.6666666666666643"/>
      <point x="581.3333333333334" y="29.333333333333336" type="qcurve"/>
    </contour>
    <contour>
      <point x="349.0" y="127.33333333333334" type="line"/>
      <point x="138.0" y="127.33333333333334" type="line"/>
      <point x="194.33333333333334" y="260.0" type="line"/>
      <point x="349.0" y="260.0" type="line"/>
    </contour>
    <contour>
      <point x="549.6666666666666" y="127.33333333333334" type="line"/>
      <point x="349.0" y="127.33333333333334" type="line"/>
      <point x="349.0" y="260.0" type="line"/>
      <point x="506.0" y="260.0" type="line"/>
    </contour>
  </outline>
</glyph>
<glyph name="aogonek" format="2">
  <advance width="659"/>
  <unicode hex="0105"/>
  <note>
aogonek
</note>
  <outline>
    <contour>
      <point x="384.3333333333333" y="26.333333333333332" type="qcurve" smooth="yes"/>
      <point x="356.6666666666667" y="7.333333333333333"/>
      <point x="301.3333333333333" y="-9.333333333333334"/>
      <point x="269.6666666666667" y="-9.333333333333334" type="qcurve"/>
      <point x="167.0" y="-9.333333333333334"/>
      <point x="32.666666666666664" y="146.33333333333334"/>
      <point x="32.666666666666664" y="266.6666666666667" type="qcurve"/>
      <point x="32.666666666666664" y="388.0"/>
      <point x="165.33333333333334" y="542.6666666666666"/>
      <point x="270.0" y="542.6666666666666" type="qcurve"/>
      <point x="329.0" y="542.6666666666666"/>
      <point x="419.0" y="488.3333333333333"/>
      <point x="449.0" y="436.3333333333333" type="qcurve"/>
      <point x="425.6666666666667" y="431.0" type="line"/>
      <point x="425.6666666666667" y="531.6666666666666" type="line"/>
      <point x="593.0" y="531.6666666666666" type="line"/>
      <point x="593.0" y="0.0" type="line"/>
      <point x="545.6666666666666" y="-14.666666666666668"/>
      <point x="486.0" y="-59.0"/>
      <point x="486.0" y="-83.33333333333334" type="qcurve" smooth="yes"/>
      <point x="486.0" y="-96.0"/>
      <point x="503.0" y="-112.66666666666667"/>
      <point x="517.0" y="-112.66666666666667" type="qcurve" smooth="yes"/>
      <point x="527.6666666666666" y="-112.66666666666667"/>
      <point x="547.0" y="-100.66666666666667"/>
      <point x="558.0" y="-88.66666666666667" type="qcurve"/>
      <point x="624.3333333333334" y="-147.66666666666666" type="line"/>
      <point x="601.3333333333334" y="-175.0"/>
      <point x="535.6666666666666" y="-220.33333333333334"/>
      <point x="497.0" y="-220.33333333333334" type="qcurve" smooth="yes"/>
      <point x="442.3333333333333" y="-220.33333333333334"/>
      <point x="371.0" y="-155.66666666666666"/>
      <point x="371.0" y="-106.66666666666667" type="qcurve" smooth="yes"/>
      <point x="371.0" y="-73.0"/>
      <point x="415.6666666666667" y="-13.666666666666666"/>
      <point x="485.3333333333333" y="28.666666666666668" type="qcurve"/>
      <point x="488.6666666666667" y="0.0" type="line"/>
      <point x="422.3333333333333" y="0.0" type="line"/>
      <point x="422.3333333333333" y="123.0" type="line"/>
      <point x="455.6666666666667" y="122.0" type="line"/>
      <point x="441.0" y="90.66666666666667"/>
      <point x="409.0" y="43.333333333333336"/>
    </contour>
    <contour>
      <point x="200.33333333333331" y="266.6666666666667" type="qcurve"/>
      <point x="200.33333333333331" y="204.66666666666666"/>
      <point x="261.3333333333333" y="132.33333333333331"/>
      <point x="313.0" y="132.33333333333331" type="qcurve"/>
      <point x="365.6666666666667" y="132.33333333333331"/>
      <point x="427.0" y="204.66666666666666"/>
      <point x="427.0" y="266.6666666666667" type="qcurve"/>
      <point x="427.0" y="328.3333333333333"/>
      <point x="365.6666666666667" y="401.0"/>
      <point x="313.0" y="401.0" type="qcurve"/>
      <point x="261.3333333333333" y="401.0"/>
      <point x="200.33333333333331" y="328.3333333333333"/>
    </contour>
  </outline>
</glyph>
<glyph name="eogonek" format="2">
  <advance width="586"/>
  <unicode hex="0119"/>
  <note>
eogonek
</note>
  <outline>
    <contour>
      <point x="325.0" y="-10.0" type="qcurve"/>
      <point x="191.0" y="-10.0"/>
      <point x="33.333333333333336" y="144.66666666666666"/>
      <point x="33.333333333333336" y="264.3333333333333" type="qcurve"/>
      <point x="33.333333333333336" y="386.3333333333333"/>
      <point x="185.66666666666666" y="542.6666666666666"/>
      <point x="303.3333333333333" y="543.0" type="qcurve"/>
      <point x="416.0" y="542.6666666666666"/>
      <point x="556.6666666666666" y="390.0"/>
      <point x="556.6666666666666" y="272.6666666666667" type="qcurve"/>
      <point x="555.6666666666666" y="230.0" type="line"/>
      <point x="133.33333333333334" y="230.0" type="line"/>
      <point x="110.33333333333333" y="320.6666666666667" type="line"/>
      <point x="420.0" y="320.6666666666667" type="line"/>
      <point x="401.0" y="301.6666666666667" type="line"/>
      <point x="401.0" y="321.6666666666667" type="line"/>
      <point x="399.3333333333333" y="357.3333333333333"/>
      <point x="346.3333333333333" y="402.6666666666667"/>
      <point x="306.0" y="402.6666666666667" type="qcurve"/>
      <point x="249.66666666666666" y="402.6666666666667"/>
      <point x="190.66666666666666" y="337.0"/>
      <point x="190.66666666666666" y="277.3333333333333" type="qcurve"/>
      <point x="190.66666666666666" y="214.0"/>
      <point x="270.6666666666667" y="137.33333333333331"/>
      <point x="343.6666666666667" y="137.33333333333331" type="qcurve"/>
      <point x="376.6666666666667" y="137.33333333333331"/>
      <point x="427.6666666666667" y="156.0"/>
      <point x="456.6666666666667" y="178.66666666666666" type="qcurve"/>
      <point x="535.6666666666666" y="66.33333333333333" type="line"/>
      <point x="519.0" y="54.333333333333336"/>
      <point x="483.6666666666667" y="29.0"/>
      <point x="465.0" y="15.333333333333332" type="qcurve" smooth="yes"/>
      <point x="433.0" y="-8.666666666666668"/>
      <point x="390.6666666666667" y="-47.0"/>
      <point x="390.6666666666667" y="-74.0" type="qcurve" smooth="yes"/>
      <point x="390.6666666666667" y="-88.0"/>
      <point x="408.0" y="-106.66666666666667"/>
      <point x="422.3333333333333" y="-106.66666666666667" type="qcurve" smooth="yes"/>
      <point x="432.6666666666667" y="-106.66666666666667"/>
      <point x="451.6666666666667" y="-94.66666666666667"/>
      <point x="462.6666666666667" y="-82.66666666666667" type="qcurve"/>
      <point x="529.0" y="-141.66666666666669" type="line"/>
      <point x="506.0" y="-169.0"/>
      <point x="440.3333333333333" y="-214.33333333333334"/>
      <point x="401.6666666666667" y="-214.33333333333334" type="qcurve" smooth="yes"/>
      <point x="346.0" y="-214.33333333333334"/>
      <point x="275.6666666666667" y="-149.66666666666666"/>
      <point x="275.6666666666667" y="-98.66666666666667" type="qcurve" smooth="yes"/>
      <point x="275.6666666666667" y="-51.0"/>
      <point x="354.6666666666667" y="25.0"/>
      <point x="449.0" y="62.0" type="qcurve"/>
      <point x="436.3333333333333" y="27.66666666666667" type="line"/>
      <point x="411.6666666666667" y="16.333333333333336"/>
      <point x="354.0" y="-9.333333333333334"/>
    </contour>
  </outline>
</glyph>
<glyph name="kgreenlandic" format="2">
  <advance width="631"/>
  <unicode hex="0138"/>
  <anchor x="293.0" y="0" name="bottom"/>
  <anchor x="293.0" y="510.0" name="top"/>
  <outline>
    <contour>
      <point x="239.0" y="0.0" type="line"/>
      <point x="71.33333333333333" y="0.0" type="line"/>
      <point x="71.33333333333333" y="531.6666666666666" type="line"/>
      <point x="239.0" y="531.6666666666666" type="line"/>
    </contour>
    <contour>
      <point x="413.3333333333333" y="531.6666666666666" type="line"/>
      <point x="629.6666666666666" y="531.6666666666666" type="line"/>
      <point x="351.3333333333333" y="250.33333333333334" type="line"/>
      <point x="233.33333333333331" y="131.33333333333334" type="line"/>
      <point x="165.0" y="249.33333333333334" type="line"/>
    </contour>
    <contour>
      <point x="622.0" y="-0.33333333333333337" type="line"/>
      <point x="426.3333333333333" y="0.0" type="line"/>
      <point x="250.0" y="258.0" type="line"/>
      <point x="367.66666666666663" y="341.6666666666667" type="line"/>
    </contour>
  </outline>
</glyph>
<glyph name="Lslash" format="2">
  <advance width="623"/>
  <unicode hex="0141"/>
  <note>
Lslash
</note>
  <outline>
    <contour>
      <point x="48.333333333333336" y="234.66666666666666" type="line"/>
      <point x="-2.6666666666666643" y="367.3333333333333" type="line"/>
      <point x="365.6666666666667" y="529.0" type="line"/>
      <point x="417.6666666666667" y="394.6666666666667" type="line"/>
    </contour>
    <component base="L" xOffset="13"/>
  </outline>
</glyph>
<glyph name="Eng" format="2">
  <advance width="796"/>
  <unicode hex="014A"/>
  <note>
Eng
</note>
  <outline>
    <contour>
      <point x="547.0" y="58.0" type="line"/>
      <point x="555.3333333333334" y="-2.0" type="line"/>
      <point x="227.0" y="440.0" type="line"/>
      <point x="240.66666666666666" y="448.6666666666667" type="line"/>
      <point x="244.0" y="413.6666666666667"/>
      <point x="249.66666666666666" y="347.0"/>
      <point x="251.0" y="322.6666666666667" type="qcurve" smooth="yes"/>
      <point x="253.0" y="297.0"/>
      <point x="254.0" y="250.0"/>
      <point x="254.0" y="224.33333333333334" type="qcurve"/>
      <point x="254.0" y="0.0" type="line"/>
      <point x="79.33333333333334" y="0.0" type="line"/>
      <point x="79.33333333333334" y="700.0" type="line"/>
      <point x="240.33333333333331" y="700.0" type="line"/>
      <point x="574.3333333333334" y="245.0" type="line"/>
      <point x="559.6666666666666" y="238.0" type="line"/>
      <point x="548.3333333333334" y="322.66666666666663"/>
      <point x="541.0" y="444.66666666666663"/>
      <point x="541.6666666666666" y="536.6666666666666" type="qcurve"/>
      <point x="541.6666666666666" y="700.0" type="line"/>
      <point x="716.3333333333334" y="700.0" type="line"/>
      <point x="716.3333333333334" y="64.66666666666667" type="line"/>
      <point x="716.3333333333334" y="-8.0" type="line" smooth="yes"/>
      <point x="716.3333333333334" y="-110.0"/>
      <point x="593.6666666666666" y="-203.66666666666666"/>
      <point x="484.6666666666667" y="-203.66666666666666" type="qcurve"/>
      <point x="413.0" y="-71.33333333333334" type="line"/>
      <point x="461.0" y="-71.33333333333334"/>
      <point x="519.6666666666666" y="-38.0"/>
      <point x="533.6666666666666" y="5.0" type="qcurve"/>
    </contour>
  </outline>
</glyph>
<glyph name="eng" format="2">
  <advance width="642"/>
  <unicode hex="014B"/>
  <note>
eng
</note>
  <anchor x="286.0" y="0" name="bottom"/>
  <anchor x="295.0" y="510.0" name="top"/>
  <outline>
    <contour>
      <point x="409.3333333333333" y="47.666666666666664" type="line"/>
      <point x="579.0" y="53.666666666666664" type="line"/>
      <point x="579.0" y="-8.0" type="line" smooth="yes"/>
      <point x="579.0" y="-106.33333333333333"/>
      <point x="461.0" y="-203.66666666666666"/>
      <point x="349.0" y="-203.66666666666666" type="qcurve"/>
      <point x="285.3333333333333" y="-71.33333333333334" type="line"/>
      <point x="349.6666666666667" y="-71.33333333333334"/>
      <point x="407.6638185068888" y="-14.831859933783157"/>
      <point x="409.3333333333333" y="41.33333333333333" type="qcurve"/>
    </contour>
    <component base="n"/>
  </outline>
</glyph>
<glyph name="florin" format="2">
  <advance width="563"/>
  <unicode hex="0192"/>
  <note>
florin
</note>
  <outline>
    <contour>
      <point x="113.33333333333333" y="-31.0" type="qcurve" smooth="yes"/>
      <point x="80.0" y="-31.0"/>
      <point x="19.333333333333332" y="-15.666666666666666"/>
      <point x="-5.333333333333332" y="1.0" type="qcurve"/>
      <point x="52.0" y="137.0" type="line"/>
      <point x="67.66666666666666" y="129.0"/>
      <point x="93.0" y="122.0"/>
      <point x="110.0" y="122.0" type="qcurve" smooth="yes"/>
      <point x="131.0" y="122.0"/>
      <point x="158.66666666666666" y="160.33333333333331"/>
      <point x="165.66666666666666" y="197.0" type="qcurve"/>
      <point x="219.66666666666666" y="519.3333333333334" type="line" smooth="yes"/>
      <point x="235.0" y="612.6666666666666"/>
      <point x="344.60900140646976" y="700.6666666666666"/>
      <point x="434.0" y="700.6666666666666" type="qcurve" smooth="yes"/>
      <point x="471.6818181818182" y="700.6666666666666"/>
      <point x="536.6666666666666" y="682.3333333333334"/>
      <point x="567.3333333333334" y="662.3333333333334" type="qcurve"/>
      <point x="509.3333333333333" y="527.6666666666666" type="line"/>
      <point x="492.0" y="539.0"/>
      <point x="465.2690058479532" y="548.0"/>
      <point x="449.6666666666667" y="548.0" type="qcurve" smooth="yes"/>
      <point x="421.6666666666667" y="548.0"/>
      <point x="393.3333333333333" y="514.3333333333334"/>
      <point x="388.0" y="485.0" type="qcurve"/>
      <point x="332.3333333333333" y="161.0" type="line" smooth="yes"/>
      <point x="315.0" y="62.33333333333333"/>
      <point x="203.91701828410686" y="-31.0"/>
    </contour>
    <contour>
      <point x="477.3333333333333" y="301.0" type="line"/>
      <point x="88.33333333333333" y="302.0" type="line"/>
      <point x="88.33333333333333" y="438.3333333333333" type="line"/>
      <point x="477.3333333333333" y="437.3333333333333" type="line"/>
    </contour>
  </outline>
</glyph>
<glyph name="Nhookleft" format="2">
  <advance width="794"/>
  <unicode hex="019D"/>
  <outline>
    <contour>
      <point x="252.0" y="193.66666666666669" type="qcurve"/>
      <point x="252.0" y="7.333333333333332" type="line" smooth="yes"/>
      <point x="252.0" y="-103.33333333333333"/>
      <point x="133.33333333333331" y="-203.66666666666666"/>
      <point x="20.333333333333332" y="-203.66666666666666" type="qcurve"/>
      <point x="-51.33333333333333" y="-71.33333333333334" type="line"/>
      <point x="13.333333333333334" y="-71.33333333333334"/>
      <point x="77.33333333333333" y="-12.0"/>
      <point x="77.33333333333333" y="47.666666666666664" type="qcurve"/>
      <point x="77.33333333333333" y="700.0" type="line"/>
      <point x="238.33333333333331" y="700.0" type="line"/>
      <point x="595.6666666666666" y="212.33333333333331" type="line"/>
      <point x="559.6666666666666" y="218.66666666666666" type="line"/>
      <point x="548.3333333333334" y="306.0"/>
      <point x="539.0" y="433.3333333333333"/>
      <point x="539.6666666666666" y="536.6666666666666" type="qcurve"/>
      <point x="539.6666666666666" y="700.0" type="line"/>
      <point x="714.3333333333334" y="700.0" type="line"/>
      <point x="714.3333333333334" y="0.0" type="line"/>
      <point x="551.3333333333334" y="0.0" type="line"/>
      <point x="174.33333333333334" y="510.6666666666667" type="line"/>
      <point x="232.0" y="499.33333333333337" type="line"/>
      <point x="239.33333333333331" y="440.33333333333337"/>
      <point x="249.0" y="358.33333333333337"/>
      <point x="249.66666666666666" y="300.0" type="qcurve" smooth="yes"/>
      <point x="251.0" y="266.33333333333337"/>
      <point x="252.0" y="223.33333333333334"/>
    </contour>
  </outline>
</glyph>
<glyph name="jdotless" format="2">
  <advance width="263"/>
  <unicode hex="0237"/>
  <note>
dotlessj
</note>
  <anchor x="151.0" y="0" name="bottom"/>
  <anchor x="134.0" y="534.3333333333334" name="top"/>
  <outline>
    <contour>
      <point x="224.0" y="531.6666666666666" type="line"/>
      <point x="224.0" y="7.333333333333332" type="line" smooth="yes"/>
      <point x="224.0" y="-103.0"/>
      <point x="106.0" y="-203.66666666666666"/>
      <point x="-6.0" y="-203.66666666666666" type="qcurve"/>
      <point x="-77.66666666666666" y="-71.33333333333334" type="line"/>
      <point x="-11.0" y="-71.33333333333334"/>
      <point x="54.333333333333336" y="-12.0"/>
      <point x="54.333333333333336" y="47.666666666666664" type="qcurve"/>
      <point x="54.333333333333336" y="531.6666666666666" type="line"/>
    </contour>
  </outline>
</glyph>
<glyph name="firsttonechinese" format="2">
  <advance width="449"/>
  <unicode hex="02C9"/>
  <outline>
    <contour>
      <point x="399.6666666666667" y="598.3333333333334" type="line"/>
      <point x="49.66666666666667" y="598.3333333333334" type="line"/>
      <point x="49.66666666666667" y="720.0" type="line"/>
      <point x="399.6666666666667" y="720.0" type="line"/>
    </contour>
  </outline>
</glyph>
<glyph name="ogonek" format="2">
  <advance width="295"/>
  <unicode hex="02DB"/>
  <outline>
    <contour>
      <point x="143.66666666666666" y="-213.66666666666666" type="qcurve" smooth="yes"/>
      <point x="92.0" y="-213.66666666666666"/>
      <point x="21.333333333333336" y="-148.82866043613708"/>
      <point x="21.333333333333336" y="-101.33333333333333" type="qcurve" smooth="yes"/>
      <point x="21.333333333333336" y="-50.0"/>
      <point x="105.66666666666667" y="26.666666666666668"/>
      <point x="189.66666666666666" y="49.333333333333336" type="qcurve"/>
      <point x="211.66666666666666" y="43.666666666666664" type="line"/>
      <point x="233.66666666666666" y="-0.33333333333333337" type="line"/>
      <point x="193.66666666666666" y="-9.666666666666666"/>
      <point x="135.66666666666666" y="-53.666666666666664"/>
      <point x="135.66666666666666" y="-79.33333333333333" type="qcurve" smooth="yes"/>
      <point x="135.66666666666666" y="-91.33333333333333"/>
      <point x="150.0" y="-106.0"/>
      <point x="162.33333333333334" y="-106.0" type="qcurve" smooth="yes"/>
      <point x="172.0" y="-106.0"/>
      <point x="186.0" y="-94.33333333333334"/>
      <point x="194.0" y="-82.33333333333334" type="qcurve"/>
      <point x="266.0" y="-135.0" type="line"/>
      <point x="250.78128093811995" y="-163.60840310556006"/>
      <point x="184.33333333333334" y="-213.66666666666666"/>
    </contour>
  </outline>
</glyph>
<glyph name="tildecomb" format="2">
  <advance width="295"/>
  <unicode hex="0303"/>
  <outline>
    <contour>
      <point x="129.0" y="606.3333333333334" type="qcurve"/>
      <point x="26.666666666666668" y="623.0" type="line"/>
      <point x="27.333333333333336" y="684.5599128540306"/>
      <point x="90.66666666666667" y="760.0"/>
      <point x="142.66666666666666" y="760.0" type="qcurve" smooth="yes"/>
      <point x="161.0" y="760.0"/>
      <point x="197.33333333333334" y="743.3333333333334"/>
      <point x="232.66666666666666" y="721.6666666666666" type="qcurve" smooth="yes"/>
      <point x="251.66666666666666" y="710.0"/>
      <point x="267.6666666666667" y="702.6666666666666"/>
      <point x="274.6666666666667" y="702.6666666666666" type="qcurve"/>
      <point x="287.6666666666667" y="702.6666666666666"/>
      <point x="301.6666666666667" y="729.0"/>
      <point x="300.6666666666667" y="749.3333333333334" type="qcurve"/>
      <point x="402.3333333333333" y="730.6666666666666" type="line"/>
      <point x="401.3333333333333" y="674.4711111111111"/>
      <point x="344.0" y="598.0"/>
      <point x="298.6666666666667" y="598.0" type="qcurve"/>
      <point x="277.6666666666667" y="598.0"/>
      <point x="235.66666666666666" y="617.3333333333334"/>
      <point x="197.0" y="638.0" type="qcurve" smooth="yes"/>
      <point x="179.0" y="648.0"/>
      <point x="164.33333333333334" y="655.0"/>
      <point x="158.66666666666666" y="655.0" type="qcurve" smooth="yes"/>
      <point x="145.0" y="655.0"/>
      <point x="129.0" y="629.3333333333334"/>
    </contour>
  </outline>
</glyph>
<glyph name="dotaccentcomb" format="2">
  <unicode hex="0307"/>
  <anchor x="105.0" y="511.0" name="_top"/>
  <anchor x="105.0" y="751.0" name="top"/>
  <outline>
    <contour>
      <point x="175.0" y="690.0" type="qcurve" smooth="yes"/>
      <point x="175.0" y="661.0"/>
      <point x="138.0" y="625.0"/>
      <point x="106.0" y="625.0" type="qcurve" smooth="yes"/>
      <point x="73.0" y="625.0"/>
      <point x="37.0" y="659.0"/>
      <point x="37.0" y="690.0" type="qcurve" smooth="yes"/>
      <point x="37.0" y="719.0"/>
      <point x="74.0" y="755.0"/>
      <point x="106.0" y="755.0" type="qcurve" smooth="yes"/>
      <point x="139.0" y="755.0"/>
      <point x="175.0" y="721.0"/>
    </contour>
  </outline>
</glyph>
<glyph name="ringcomb" format="2">
  <unicode hex="030A"/>
  <anchor x="158.0" y="490.0" name="_top"/>
  <anchor x="158.0" y="775.0" name="top"/>
  <outline>
    <contour>
      <point x="269.0" y="669.0" type="qcurve"/>
      <point x="269.0" y="627.0"/>
      <point x="203.0" y="564.0"/>
      <point x="159.0" y="564.0" type="qcurve"/>
      <point x="116.0" y="564.0"/>
      <point x="50.0" y="627.0"/>
      <point x="50.0" y="669.0" type="qcurve"/>
      <point x="50.0" y="712.0"/>
      <point x="115.0" y="775.0"/>
      <point x="159.0" y="775.0" type="qcurve"/>
      <point x="203.0" y="775.0"/>
      <point x="269.0" y="712.0"/>
    </contour>
    <contour>
      <point x="110.0" y="669.0" type="qcurve"/>
      <point x="110.0" y="650.0"/>
      <point x="139.0" y="623.0"/>
      <point x="159.0" y="623.0" type="qcurve"/>
      <point x="180.0" y="623.0"/>
      <point x="209.0" y="650.0"/>
      <point x="209.0" y="669.0" type="qcurve"/>
      <point x="209.0" y="690.0"/>
      <point x="180.0" y="716.0"/>
      <point x="159.0" y="716.0" type="qcurve"/>
      <point x="138.0" y="716.0"/>
      <point x="110.0" y="689.0"/>
    </contour>
  </outline>
</glyph>
<glyph name="hungarumlautcomb" format="2">
  <unicode hex="030B"/>
  <outline>
    <contour>
      <point x="251.66666666666666" y="671.0" type="line"/>
      <point x="63.666666666666664" y="567.0" type="line"/>
      <point x="17.0" y="635.3333333333334" type="line"/>
      <point x="166.0" y="778.3333333333334" type="line"/>
    </contour>
    <contour>
      <point x="483.3333333333333" y="671.0" type="line"/>
      <point x="295.3333333333333" y="567.0" type="line"/>
      <point x="248.66666666666666" y="635.3333333333334" type="line"/>
      <point x="397.6666666666667" y="778.3333333333334" type="line"/>
    </contour>
  </outline>
</glyph>
<glyph name="commaaccentcomb" format="2">
  <unicode hex="0326"/>
  <anchor x="124.0" y="0" name="_bottom"/>
  <anchor x="123.0" y="-276.0" name="bottom"/>
  <outline>
    <contour>
      <point x="76.33333333333333" y="-286.6666666666667" type="qcurve"/>
      <point x="33.66666666666667" y="-230.0" type="line"/>
      <point x="70.0" y="-217.0"/>
      <point x="109.0" y="-187.66666666666666"/>
      <point x="109.0" y="-171.33333333333334" type="qcurve" smooth="yes"/>
      <point x="109.0" y="-162.83333333333334"/>
      <point x="96.93479060762381" y="-153.13406197047854"/>
      <point x="84.0" y="-147.66666666666666" type="qcurve" smooth="yes"/>
      <point x="62.890374105992585" y="-138.80494005047265"/>
      <point x="44.0" y="-112.42424242424242"/>
      <point x="44.0" y="-91.66666666666667" type="qcurve"/>
      <point x="44.0" y="-57.51741293532339"/>
      <point x="91.47712418300654" y="-24.0"/>
      <point x="127.0" y="-24.0" type="qcurve"/>
      <point x="170.80373831775702" y="-24.0"/>
      <point x="231.0" y="-74.0"/>
      <point x="231.0" y="-124.33333333333333" type="qcurve" smooth="yes"/>
      <point x="231.0" y="-185.66666666666666"/>
      <point x="147.61418583719168" y="-266.3472839335735"/>
    </contour>
  </outline>
</glyph>
<glyph name="hah-ar" format="2">
  <advance width="739"/>
  <unicode hex="062D"/>
  <anchor x="419.0" y="-456.0" name="bottom"/>
  <anchor x="420.0" y="-124.0" name="center"/>
  <anchor x="305.0" y="421.0" name="top"/>
  <outline>
    <contour>
      <point x="452.0" y="-354.0" type="qcurve" smooth="yes"/>
      <point x="529.0" y="-354.0"/>
      <point x="652.0" y="-332.0"/>
      <point x="726.0" y="-304.0" type="qcurve"/>
      <point x="679.0" y="-270.0" type="line"/>
      <point x="732.0" y="-442.0" type="line"/>
      <point x="753.0" y="-385.0" type="line"/>
      <point x="659.0" y="-424.0"/>
      <point x="508.0" y="-456.0"/>
      <point x="419.0" y="-456.0" type="qcurve" smooth="yes"/>
      <point x="254.0" y="-456.0"/>
      <point x="60.0" y="-309.0"/>
      <point x="60.0" y="-181.0" type="qcurve" smooth="yes"/>
      <point x="60.0" y="-32.0"/>
      <point x="284.0" y="171.0"/>
      <point x="537.0" y="251.0" type="qcurve"/>
      <point x="614.0" y="195.0" type="line"/>
      <point x="602.0" y="195.0"/>
      <point x="559.0" y="212.0"/>
      <point x="503.0" y="241.0" type="qcurve" smooth="yes"/>
      <point x="413.0" y="288.0"/>
      <point x="322.0" y="319.0"/>
      <point x="288.0" y="319.0" type="qcurve" smooth="yes"/>
      <point x="240.0" y="319.0"/>
      <point x="159.0" y="265.0"/>
      <point x="126.0" y="211.0" type="qcurve"/>
      <point x="66.0" y="255.0" type="line"/>
      <point x="100.0" y="328.0"/>
      <point x="231.0" y="421.0"/>
      <point x="305.0" y="421.0" type="qcurve" smooth="yes"/>
      <point x="346.0" y="421.0"/>
      <point x="441.0" y="389.0"/>
      <point x="532.0" y="339.0" type="qcurve" smooth="yes"/>
      <point x="598.0" y="302.0"/>
      <point x="656.0" y="280.0"/>
      <point x="677.0" y="280.0" type="qcurve"/>
      <point x="677.0" y="195.0" type="line"/>
      <point x="381.0" y="111.0"/>
      <point x="164.0" y="-49.0"/>
      <point x="164.0" y="-166.0" type="qcurve" smooth="yes"/>
      <point x="164.0" y="-258.0"/>
      <point x="311.0" y="-354.0"/>
    </contour>
  </outline>
</glyph>
<glyph name="tah-ar" format="2">
  <advance width="848"/>
  <unicode hex="0637"/>
  <anchor x="761.0" y="0" name="#entry"/>
  <anchor x="453.0" y="0" name="bottom"/>
  <anchor x="496.0" y="438.0" name="top"/>
  <outline>
    <contour>
      <point x="761.0" y="0.0" type="qcurve"/>
      <point x="30.0" y="0.0" type="line"/>
      <point x="30.0" y="102.0" type="line"/>
      <point x="678.0" y="102.0" type="line"/>
      <point x="680.0" y="220.0"/>
      <point x="609.0" y="334.0"/>
      <point x="534.0" y="334.0" type="qcurve" smooth="yes"/>
      <point x="450.0" y="334.0"/>
      <point x="275.0" y="169.0"/>
      <point x="193.0" y="12.0" type="qcurve"/>
      <point x="153.0" y="94.0" type="line"/>
      <point x="234.0" y="263.0"/>
      <point x="434.0" y="438.0"/>
      <point x="546.0" y="438.0" type="qcurve" smooth="yes"/>
      <point x="686.0" y="438.0"/>
      <point x="804.0" y="193.0"/>
    </contour>
    <contour>
      <point x="239.0" y="0.0" type="line"/>
      <point x="135.0" y="0.0" type="line"/>
      <point x="135.0" y="738.0" type="line"/>
      <point x="239.0" y="740.0" type="line"/>
    </contour>
  </outline>
</glyph>
<glyph name="two-ar" format="2">
  <advance width="463"/>
  <unicode hex="0662"/>
  <outline>
    <contour>
      <point x="184" y="412" type="qcurve"/>
      <point x="184" y="0" type="line"/>
      <point x="80" y="0" type="line"/>
      <point x="80" y="412" type="line" smooth="yes"/>
      <point x="80" y="533"/>
      <point x="197" y="661"/>
      <point x="307" y="661" type="qcurve"/>
      <point x="443" y="661" type="line"/>
      <point x="443" y="559" type="line"/>
      <point x="307" y="559" type="line" smooth="yes"/>
      <point x="241" y="559"/>
      <point x="184" y="491"/>
    </contour>
  </outline>
</glyph>
<glyph name="three-ar" format="2">
  <advance width="630"/>
  <unicode hex="0663"/>
  <outline>
    <contour>
      <point x="447" y="410" type="qcurve" smooth="yes"/>
      <point x="377" y="410"/>
      <point x="298" y="489"/>
      <point x="298" y="559" type="qcurve"/>
      <point x="298" y="623" type="line"/>
      <point x="402" y="623" type="line"/>
      <point x="402" y="559" type="line" smooth="yes"/>
      <point x="402" y="529"/>
      <point x="424" y="502"/>
      <point x="447" y="502" type="qcurve" smooth="yes"/>
      <point x="471" y="502"/>
      <point x="496" y="534"/>
      <point x="496" y="565" type="qcurve"/>
      <point x="496" y="661" type="line"/>
      <point x="600" y="661" type="line"/>
      <point x="600" y="575" type="line" smooth="yes"/>
      <point x="600" y="502"/>
      <point x="515" y="410"/>
    </contour>
    <contour>
      <point x="204" y="0" type="line"/>
      <point x="100" y="0" type="line"/>
      <point x="100" y="661" type="line"/>
      <point x="204" y="661" type="line"/>
    </contour>
    <contour>
      <point x="263" y="410" type="qcurve" smooth="yes"/>
      <point x="195" y="410"/>
      <point x="100" y="498"/>
      <point x="100" y="565" type="qcurve"/>
      <point x="100" y="661" type="line"/>
      <point x="204" y="661" type="line"/>
      <point x="204" y="565" type="line" smooth="yes"/>
      <point x="204" y="534"/>
      <point x="229" y="502"/>
      <point x="253" y="502" type="qcurve" smooth="yes"/>
      <point x="276" y="502"/>
      <point x="298" y="529"/>
      <point x="298" y="559" type="qcurve"/>
      <point x="298" y="623" type="line"/>
      <point x="402" y="623" type="line"/>
      <point x="402" y="559" type="line" smooth="yes"/>
      <point x="402" y="490"/>
      <point x="326" y="410"/>
    </contour>
  </outline>
</glyph>
<glyph name="four-ar" format="2">
  <advance width="528"/>
  <unicode hex="0664"/>
  <outline>
    <contour>
      <point x="322" y="661" type="qcurve"/>
      <point x="420" y="661" type="line"/>
      <point x="420" y="559" type="line"/>
      <point x="322" y="559" type="line" smooth="yes"/>
      <point x="265" y="559"/>
      <point x="195" y="505"/>
      <point x="195" y="461" type="qcurve" smooth="yes"/>
      <point x="195" y="427"/>
      <point x="243" y="369"/>
      <point x="279" y="359" type="qcurve"/>
      <point x="247" y="291" type="line"/>
      <point x="183" y="293"/>
      <point x="91" y="393"/>
      <point x="91" y="461" type="qcurve" smooth="yes"/>
      <point x="91" y="548"/>
      <point x="221" y="661"/>
    </contour>
    <contour>
      <point x="312" y="387" type="qcurve"/>
      <point x="399" y="396" type="line"/>
      <point x="409" y="294" type="line"/>
      <point x="322" y="286" type="line" smooth="yes"/>
      <point x="252" y="280"/>
      <point x="179" y="227"/>
      <point x="179" y="182" type="qcurve" smooth="yes"/>
      <point x="179" y="137"/>
      <point x="244" y="95"/>
      <point x="314" y="95" type="qcurve" smooth="yes"/>
      <point x="355" y="95"/>
      <point x="417" y="104"/>
      <point x="457" y="116" type="qcurve"/>
      <point x="483" y="22" type="line"/>
      <point x="446" y="7"/>
      <point x="365" y="-7"/>
      <point x="314" y="-7" type="qcurve" smooth="yes"/>
      <point x="202" y="-7"/>
      <point x="75" y="92"/>
      <point x="75" y="180" type="qcurve" smooth="yes"/>
      <point x="75" y="266"/>
      <point x="202" y="376"/>
    </contour>
  </outline>
</glyph>
<glyph name="Germandbls" format="2">
  <advance width="807"/>
  <unicode hex="1E9E"/>
  <outline>
    <contour>
      <point x="689.0" y="555.6666666666666" type="line"/>
      <point x="607.6666666666666" y="548.6666666666666"/>
      <point x="519.6666666666666" y="497.0"/>
      <point x="519.6666666666666" y="466.0" type="qcurve" smooth="yes"/>
      <point x="519.6666666666666" y="442.0"/>
      <point x="563.0" y="402.3333333333333"/>
      <point x="606.3333333333334" y="384.0" type="qcurve" smooth="yes"/>
      <point x="662.6666666666666" y="360.6666666666667"/>
      <point x="712.0" y="326.6666666666667"/>
      <point x="730.3333333333334" y="306.3333333333333" type="qcurve" smooth="yes"/>
      <point x="749.6666666666666" y="285.0"/>
      <point x="768.3333333333334" y="231.0"/>
      <point x="768.3333333333334" y="196.0" type="qcurve" smooth="yes"/>
      <point x="768.3333333333334" y="112.33333333333333"/>
      <point x="614.0" y="-10.0"/>
      <point x="508.6666666666667" y="-10.0" type="qcurve" smooth="yes"/>
      <point x="447.3333333333333" y="-10.0"/>
      <point x="333.6666666666667" y="35.333333333333336"/>
      <point x="303.0" y="75.0" type="qcurve"/>
      <point x="410.0" y="201.66666666666666" type="line"/>
      <point x="432.3333333333333" y="169.0"/>
      <point x="483.6666666666667" y="133.66666666666666"/>
      <point x="508.3333333333333" y="133.66666666666666" type="qcurve" smooth="yes"/>
      <point x="539.6666666666666" y="133.66666666666666"/>
      <point x="576.6666666666666" y="161.33333333333334"/>
      <point x="576.6666666666666" y="184.33333333333334" type="qcurve" smooth="yes"/>
      <point x="576.6666666666666" y="204.33333333333334"/>
      <point x="553.0" y="233.33333333333334"/>
      <point x="533.6666666666666" y="245.33333333333334" type="qcurve" smooth="yes"/>
      <point x="523.6666666666666" y="251.33333333333334"/>
      <point x="484.0" y="273.3333333333333"/>
      <point x="450.3333333333333" y="291.0" type="qcurve" smooth="yes"/>
      <point x="386.6666666666667" y="324.6666666666667"/>
      <point x="339.3333333333333" y="395.3333333333333"/>
      <point x="339.3333333333333" y="446.6666666666667" type="qcurve" smooth="yes"/>
      <point x="339.3333333333333" y="518.6666666666666"/>
      <point x="482.0" y="611.0"/>
      <point x="595.0" y="617.0" type="qcurve"/>
      <point x="612.3333333333334" y="565.0" type="line"/>
      <point x="581.6666666666666" y="576.3333333333334"/>
      <point x="486.6666666666667" y="592.0"/>
      <point x="445.0" y="592.0" type="qcurve"/>
      <point x="357.3333333333333" y="593.3333333333334"/>
      <point x="254.33333333333331" y="459.3333333333333"/>
      <point x="253.33333333333331" y="343.0" type="qcurve"/>
      <point x="252.66666666666666" y="0.33333333333333337" type="line"/>
      <point x="72.66666666666667" y="0.33333333333333337" type="line"/>
      <point x="73.0" y="350.0" type="line" smooth="yes"/>
      <point x="73.33333333333334" y="519.0"/>
      <point x="260.6666666666667" y="726.0"/>
      <point x="415.0" y="726.0" type="qcurve" smooth="yes"/>
      <point x="487.6666666666667" y="726.0"/>
      <point x="625.0" y="707.3333333333334"/>
      <point x="684.0" y="682.0" type="qcurve"/>
    </contour>
  </outline>
</glyph>
<glyph name="emdash" format="2">
  <advance width="868"/>
  <unicode hex="2014"/>
  <note>
emdash
</note>
  <outline>
    <contour>
      <point x="815.0" y="237.0" type="line"/>
      <point x="53.0" y="237.0" type="line"/>
      <point x="53.0" y="337.0" type="line"/>
      <point x="815.0" y="337.0" type="line"/>
    </contour>
  </outline>
</glyph>
<glyph name="dagger" format="2">
  <advance width="440"/>
  <unicode hex="2020"/>
  <note>
dagger
</note>
  <outline>
    <contour>
      <point x="137.0" y="202.66666666666666" type="line"/>
      <point x="137.0" y="721.0" type="line"/>
      <point x="302.6666666666667" y="721.0" type="line"/>
      <point x="302.6666666666667" y="202.66666666666666" type="line"/>
    </contour>
    <contour>
      <point x="401.0" y="438.0" type="line"/>
      <point x="38.666666666666664" y="438.0" type="line"/>
      <point x="38.666666666666664" y="579.0" type="line"/>
      <point x="401.0" y="579.0" type="line"/>
    </contour>
  </outline>
</glyph>
<glyph name="daggerdbl" format="2">
  <advance width="404"/>
  <unicode hex="2021"/>
  <note>
daggerdbl
</note>
  <outline>
    <contour>
      <point x="156.0" y="194.0" type="line"/>
      <point x="156.0" y="724.0" type="line"/>
      <point x="253.0" y="724.0" type="line"/>
      <point x="253.0" y="194.0" type="line"/>
    </contour>
    <contour>
      <point x="358.0" y="512.0" type="line"/>
      <point x="46.0" y="512.0" type="line"/>
      <point x="46.0" y="595.0" type="line"/>
      <point x="358.0" y="595.0" type="line"/>
    </contour>
    <contour>
      <point x="358.0" y="369.0" type="line"/>
      <point x="46.0" y="369.0" type="line"/>
      <point x="46.0" y="452.0" type="line"/>
      <point x="358.0" y="452.0" type="line"/>
    </contour>
  </outline>
</glyph>
<glyph name="perthousand" format="2">
  <advance width="1389"/>
  <unicode hex="2030"/>
  <note>
perthousand
</note>
  <outline>
    <contour>
      <point x="405.0" y="519.3333333333334" type="qcurve"/>
      <point x="405.0" y="436.0"/>
      <point x="303.0" y="323.6666666666667"/>
      <point x="226.33333333333331" y="323.6666666666667" type="qcurve"/>
      <point x="148.33333333333334" y="323.6666666666667"/>
      <point x="46.666666666666664" y="435.3333333333333"/>
      <point x="46.666666666666664" y="519.3333333333334" type="qcurve"/>
      <point x="46.666666666666664" y="605.6666666666666"/>
      <point x="146.66666666666666" y="716.3333333333334"/>
      <point x="226.66666666666666" y="716.3333333333334" type="qcurve"/>
      <point x="306.0" y="716.3333333333334"/>
      <point x="405.0" y="605.6666666666666"/>
    </contour>
    <contour>
      <point x="175.66666666666666" y="519.3333333333334" type="qcurve"/>
      <point x="175.66666666666666" y="479.3333333333333"/>
      <point x="202.33333333333331" y="430.6666666666667"/>
      <point x="226.66666666666666" y="430.6666666666667" type="qcurve"/>
      <point x="250.0" y="430.6666666666667"/>
      <point x="275.6666666666667" y="479.0"/>
      <point x="275.6666666666667" y="519.3333333333334" type="qcurve"/>
      <point x="275.6666666666667" y="560.3333333333334"/>
      <point x="250.0" y="609.0"/>
      <point x="226.33333333333331" y="609.0" type="qcurve"/>
      <point x="203.0" y="609.0"/>
      <point x="175.66666666666666" y="560.0"/>
    </contour>
    <contour>
      <point x="941.6666666666666" y="186.66666666666666" type="qcurve"/>
      <point x="941.6666666666666" y="103.33333333333333"/>
      <point x="840.0" y="-9.0"/>
      <point x="763.3333333333334" y="-9.0" type="qcurve"/>
      <point x="685.6666666666666" y="-9.0"/>
      <point x="583.3333333333334" y="103.0"/>
      <point x="583.3333333333334" y="186.66666666666666" type="qcurve"/>
      <point x="583.3333333333334" y="273.0"/>
      <point x="683.3333333333334" y="383.6666666666667"/>
      <point x="763.3333333333334" y="383.6666666666667" type="qcurve"/>
      <point x="842.6666666666666" y="383.6666666666667"/>
      <point x="941.6666666666666" y="273.0"/>
    </contour>
    <contour>
      <point x="712.3333333333333" y="186.66666666666666" type="qcurve"/>
      <point x="712.3333333333333" y="146.66666666666666"/>
      <point x="739.0" y="97.66666666666666"/>
      <point x="763.3333333333334" y="97.66666666666666" type="qcurve"/>
      <point x="786.6666666666666" y="97.66666666666666"/>
      <point x="812.6666666666666" y="146.66666666666666"/>
      <point x="812.6666666666666" y="186.66666666666666" type="qcurve"/>
      <point x="812.6666666666666" y="227.33333333333334"/>
      <point x="786.6666666666666" y="276.3333333333333"/>
      <point x="763.3333333333334" y="276.3333333333333" type="qcurve"/>
      <point x="739.6666666666666" y="276.3333333333333"/>
      <point x="712.3333333333333" y="227.66666666666666"/>
    </contour>
    <contour>
      <point x="1338.6666666666667" y="186.66666666666666" type="qcurve"/>
      <point x="1338.6666666666667" y="103.33333333333333"/>
      <point x="1237.0" y="-9.0"/>
      <point x="1160.3333333333333" y="-9.0" type="qcurve"/>
      <point x="1082.6666666666667" y="-9.0"/>
      <point x="980.3333333333333" y="103.0"/>
      <point x="980.3333333333333" y="186.66666666666666" type="qcurve"/>
      <point x="980.3333333333333" y="273.0"/>
      <point x="1080.3333333333333" y="383.6666666666667"/>
      <point x="1160.3333333333333" y="383.6666666666667" type="qcurve"/>
      <point x="1239.6666666666667" y="383.6666666666667"/>
      <point x="1338.6666666666667" y="273.3333333333333"/>
    </contour>
    <contour>
      <point x="1109.3333333333333" y="186.66666666666666" type="qcurve"/>
      <point x="1109.3333333333333" y="146.66666666666666"/>
      <point x="1136.0" y="97.66666666666666"/>
      <point x="1160.3333333333333" y="97.66666666666666" type="qcurve"/>
      <point x="1184.0" y="97.66666666666666"/>
      <point x="1209.6666666666667" y="146.33333333333334"/>
      <point x="1209.6666666666667" y="186.66666666666666" type="qcurve"/>
      <point x="1209.6666666666667" y="227.66666666666666"/>
      <point x="1184.0" y="276.3333333333333"/>
      <point x="1160.3333333333333" y="276.3333333333333" type="qcurve"/>
      <point x="1136.6666666666667" y="276.3333333333333"/>
      <point x="1109.3333333333333" y="227.66666666666666"/>
    </contour>
    <component base="fraction" xOffset="190.66666666666666"/>
  </outline>
</glyph>
<glyph name="fraction" format="2">
  <advance width="606"/>
  <unicode hex="2044"/>
  <note>
fraction
</note>
  <outline>
    <contour>
      <point x="144.66666666666666" y="0.0" type="line"/>
      <point x="-6.666666666666664" y="0.0" type="line"/>
      <point x="242.33333333333334" y="373.6666666666667" type="line"/>
      <point x="456.3333333333333" y="700.0" type="line"/>
      <point x="612.6666666666666" y="700.0" type="line"/>
      <point x="349.6666666666667" y="307.0" type="line"/>
    </contour>
  </outline>
</glyph>
<glyph name="colonsign" format="2">
  <advance width="693"/>
  <unicode hex="20A1"/>
  <anchor x="385.0" y="0" name="bottom"/>
  <anchor x="380.0" y="700.0" name="top"/>
  <outline>
    <contour>
      <point x="120.33333333333333" y="-117.33333333333333" type="line"/>
      <point x="-11.333333333333329" y="-61.333333333333336" type="line"/>
      <point x="424.6666666666667" y="825.6666666666666" type="line"/>
      <point x="555.0" y="771.6666666666666" type="line"/>
    </contour>
    <contour>
      <point x="333.66666666666663" y="-128.33333333333334" type="line"/>
      <point x="202.0" y="-72.33333333333334" type="line"/>
      <point x="638.0" y="814.6666666666666" type="line"/>
      <point x="768.3333333333334" y="760.6666666666666" type="line"/>
    </contour>
    <component base="C" xOffset="8"/>
  </outline>
</glyph>
<glyph name="cedi" format="2">
  <advance width="679"/>
  <unicode hex="20B5"/>
  <anchor x="377.0" y="0" name="bottom"/>
  <anchor x="372.0" y="700.0" name="top"/>
  <outline>
    <contour>
      <point x="428.0" y="21.0" type="line"/>
      <point x="428.0" y="-81.0" type="line"/>
      <point x="321.0" y="-81.0" type="line"/>
      <point x="321.0" y="18.0" type="line"/>
      <point x="325.0" y="73.0" type="line"/>
      <point x="325.0" y="637.0" type="line"/>
      <point x="321.0" y="673.0" type="line"/>
      <point x="321.0" y="776.0" type="line"/>
      <point x="428.0" y="776.0" type="line"/>
      <point x="428.0" y="680.0" type="line"/>
      <point x="418.0" y="642.0" type="line"/>
      <point x="418.0" y="66.0" type="line"/>
    </contour>
    <component base="C"/>
  </outline>
</glyph>
<glyph name="liraTurkish" format="2">
  <advance width="609"/>
  <unicode hex="20BA"/>
  <outline>
    <contour>
      <point x="250.33333333333334" y="-10.0" type="qcurve"/>
      <point x="195.66666666666666" y="-10.0"/>
      <point x="137.6321312892684" y="0.15765801888497766"/>
      <point x="122.66666666666667" y="6.666666666666666" type="qcurve"/>
      <point x="122.66666666666667" y="700.0" type="line"/>
      <point x="288.6666666666667" y="700.0" type="line"/>
      <point x="289.6666666666667" y="52.0" type="line"/>
      <point x="257.3333333333333" y="147.0" type="line"/>
      <point x="318.17228464419475" y="147.0"/>
      <point x="417.97395004064" y="201.92908622174204"/>
      <point x="437.3333333333333" y="255.0" type="qcurve"/>
      <point x="590.6666666666666" y="204.33333333333334" type="line"/>
      <point x="567.6666666666666" y="93.0"/>
      <point x="382.6666666666667" y="-10.0"/>
    </contour>
    <contour>
      <point x="69.0" y="348.6666666666667" type="line"/>
      <point x="16.0" y="450.6666666666667" type="line"/>
      <point x="367.3333333333333" y="645.6666666666666" type="line"/>
      <point x="426.0" y="546.6666666666666" type="line"/>
    </contour>
    <contour>
      <point x="75.66666666666667" y="177.33333333333334" type="line"/>
      <point x="22.666666666666668" y="279.3333333333333" type="line"/>
      <point x="374.0" y="474.3333333333333" type="line"/>
      <point x="432.6666666666667" y="375.3333333333333" type="line"/>
    </contour>
  </outline>
</glyph>
<glyph name="manat" format="2">
  <advance width="760"/>
  <unicode hex="20BC"/>
  <anchor x="380.0" y="694.0" name="bottom"/>
  <anchor x="97.0" y="684.0" name="ogonek"/>
  <anchor x="380.0" y="-6.0" name="top"/>
  <anchor x="238.0" y="-14.0" name="topright"/>
  <outline>
    <contour>
      <point x="416.0" y="801.0" type="line"/>
      <point x="416.0" y="254.0" type="line"/>
      <point x="319.0" y="254.0" type="line"/>
      <point x="319.0" y="801.0" type="line"/>
    </contour>
    <component base="U" xScale="-1" yScale="-1" xOffset="750" yOffset="694"/>
  </outline>
</glyph>
<glyph name="ruble" format="2">
  <advance width="719"/>
  <unicode hex="20BD"/>
  <anchor x="406.0" y="0" name="bottom"/>
  <anchor x="406.0" y="700.0" name="top"/>
  <outline>
    <contour>
      <point x="223.33333333333334" y="384.0" type="line"/>
      <point x="223.33333333333334" y="249.66666666666666" type="line"/>
      <point x="85.0" y="249.66666666666666" type="line"/>
      <point x="85.0" y="384.0" type="line"/>
    </contour>
    <component base="P" xOffset="85"/>
    <component base="strokeshortcomb" xOffset="54" yOffset="-172.66666666666666"/>
  </outline>
</glyph>
<glyph name="literSign" format="2">
  <advance width="539"/>
  <unicode hex="2113"/>
  <note>
uni2113
</note>
  <outline>
    <contour>
      <point x="320.0" y="122.0" type="qcurve" smooth="yes"/>
      <point x="339.87654320987656" y="122.0"/>
      <point x="372.5128201948188" y="139.08086759325107"/>
      <point x="403.3333333333333" y="161.66666666666666" type="qcurve"/>
      <point x="462.0" y="47.0" type="line"/>
      <point x="425.4757122722506" y="13.698443542346117"/>
      <point x="334.2287581699347" y="-17.0"/>
      <point x="289.0" y="-17.0" type="qcurve" smooth="yes"/>
      <point x="195.32558139534885" y="-17.0"/>
      <point x="77.0" y="148.42505592841164"/>
      <point x="77.0" y="276.3333333333333" type="qcurve" smooth="yes"/>
      <point x="77.0" y="341.40796019900495"/>
      <point x="104.45871148931641" y="488.8234173788559"/>
      <point x="128.33333333333334" y="549.0" type="qcurve" smooth="yes"/>
      <point x="168.33333333333334" y="650.6666666666666"/>
      <point x="306.34255599472993" y="747.6666666666666"/>
      <point x="388.0" y="748.0" type="qcurve"/>
      <point x="454.0" y="747.6666666666666"/>
      <point x="532.3333333333334" y="670.0"/>
      <point x="532.3333333333334" y="608.0" type="qcurve" smooth="yes"/>
      <point x="532.3333333333334" y="536.0"/>
      <point x="447.92185966567916" y="361.4980472510859"/>
      <point x="372.3333333333333" y="281.0" type="qcurve" smooth="yes"/>
      <point x="306.66874269577767" y="210.01811380919915"/>
      <point x="133.70857068369173" y="92.70530063696151"/>
      <point x="33.66666666666667" y="45.66666666666667" type="qcurve"/>
      <point x="-6.333333333333332" y="119.33333333333333" type="line"/>
      <point x="79.17853628649523" y="160.2741895591033"/>
      <point x="229.53397372532248" y="253.9365498629315"/>
      <point x="285.3333333333333" y="315.0" type="qcurve" smooth="yes"/>
      <point x="353.86257452755854" y="389.57593894665683"/>
      <point x="432.6666666666667" y="541.4761904761905"/>
      <point x="432.6666666666667" y="603.3333333333334" type="qcurve" smooth="yes"/>
      <point x="432.6666666666667" y="628.3333333333334"/>
      <point x="414.0" y="660.0"/>
      <point x="397.0" y="660.6666666666666" type="qcurve"/>
      <point x="366.34199134199133" y="659.6666666666666"/>
      <point x="318.0430303436423" y="565.7992001250849"/>
      <point x="291.6666666666667" y="485.0" type="qcurve" smooth="yes"/>
      <point x="271.6666666666667" y="423.0"/>
      <point x="246.66666666666666" y="287.0"/>
      <point x="246.66666666666666" y="242.0" type="qcurve" smooth="yes"/>
      <point x="246.66666666666666" y="189.48484848484847"/>
      <point x="287.13605442176873" y="122.0"/>
    </contour>
  </outline>
</glyph>
<glyph name="numero" format="2">
  <advance width="1177"/>
  <unicode hex="2116"/>
  <anchor x="393.0" y="0" name="bottom"/>
  <anchor x="393.0" y="700.0" name="top"/>
  <outline>
    <contour>
      <point x="1142.0" y="193.0" type="line"/>
      <point x="796.0" y="193.0" type="line"/>
      <point x="796.0" y="282.0" type="line"/>
      <point x="1142.0" y="282.0" type="line"/>
    </contour>
    <contour>
      <point x="959.0" y="708.0" type="qcurve"/>
      <point x="1033.0" y="708.0"/>
      <point x="1133.0" y="606.0"/>
      <point x="1133.0" y="531.0" type="qcurve"/>
      <point x="1133.0" y="457.0"/>
      <point x="1034.0" y="358.0"/>
      <point x="959.0" y="358.0" type="qcurve"/>
      <point x="885.0" y="358.0"/>
      <point x="788.0" y="456.0"/>
      <point x="788.0" y="531.0" type="qcurve"/>
      <point x="788.0" y="607.0"/>
      <point x="886.0" y="708.0"/>
    </contour>
    <contour>
      <point x="959.0" y="441.0" type="qcurve"/>
      <point x="996.0" y="441.0"/>
      <point x="1042.0" y="491.0"/>
      <point x="1042.0" y="531.0" type="qcurve"/>
      <point x="1042.0" y="573.0"/>
      <point x="996.0" y="625.0"/>
      <point x="959.0" y="625.0" type="qcurve"/>
      <point x="923.0" y="625.0"/>
      <point x="878.0" y="573.0"/>
      <point x="878.0" y="531.0" type="qcurve"/>
      <point x="878.0" y="491.0"/>
      <point x="923.0" y="441.0"/>
    </contour>
    <component base="N"/>
  </outline>
</glyph>
<glyph name="trademark" format="2">
  <advance width="897"/>
  <unicode hex="2122"/>
  <note>
trademark
</note>
  <outline>
    <contour>
      <point x="338.0" y="586.0" type="line"/>
      <point x="36.333333333333336" y="586.0" type="line"/>
      <point x="36.333333333333336" y="700.0" type="line"/>
      <point x="338.0" y="700.0" type="line"/>
    </contour>
    <contour>
      <point x="252.0" y="326.6666666666667" type="line"/>
      <point x="120.0" y="326.6666666666667" type="line"/>
      <point x="120.0" y="676.0" type="line"/>
      <point x="252.0" y="676.0" type="line"/>
    </contour>
    <contour>
      <point x="589.0" y="498.6666666666667" type="line"/>
      <point x="716.0" y="700.0" type="line"/>
      <point x="844.3333333333334" y="700.0" type="line"/>
      <point x="844.3333333333334" y="326.6666666666667" type="line"/>
      <point x="715.3333333333334" y="326.6666666666667" type="line"/>
      <point x="722.6666666666666" y="600.3333333333334" type="line"/>
      <point x="793.0" y="635.0" type="line"/>
      <point x="649.0" y="398.0" type="line"/>
      <point x="583.0" y="398.0" type="line"/>
      <point x="433.0" y="643.0" type="line"/>
      <point x="510.66666666666663" y="603.0" type="line"/>
      <point x="518.6666666666666" y="326.6666666666667" type="line"/>
      <point x="389.0" y="326.6666666666667" type="line"/>
      <point x="389.0" y="700.0" type="line"/>
      <point x="518.0" y="700.0" type="line"/>
      <point x="645.0" y="498.6666666666667" type="line"/>
    </contour>
  </outline>
</glyph>
<glyph name="estimated" format="2">
  <advance width="629"/>
  <unicode hex="212E"/>
  <note>
estimated
</note>
  <outline>
    <contour>
      <point x="550.0" y="115.0" type="qcurve" smooth="yes"/>
      <point x="503.0" y="47.0"/>
      <point x="397.0" y="-11.0"/>
      <point x="319.0" y="-11.0" type="qcurve" smooth="yes"/>
      <point x="197.0" y="-11.0"/>
      <point x="43.0" y="157.0"/>
      <point x="43.0" y="285.0" type="qcurve" smooth="yes"/>
      <point x="43.0" y="414.0"/>
      <point x="197.0" y="581.0"/>
      <point x="319.0" y="581.0" type="qcurve" smooth="yes"/>
      <point x="436.0" y="581.0"/>
      <point x="587.0" y="431.0"/>
      <point x="595.0" y="309.0" type="qcurve" smooth="yes"/>
      <point x="596.0" y="299.0"/>
      <point x="583.0" y="285.0"/>
      <point x="573.0" y="285.0" type="qcurve"/>
      <point x="153.0" y="285.0" type="line"/>
      <point x="158.0" y="292.0" type="line"/>
      <point x="158.0" y="98.0" type="line" smooth="yes"/>
      <point x="158.0" y="97.0"/>
      <point x="159.0" y="94.0"/>
      <point x="160.0" y="92.0" type="qcurve" smooth="yes"/>
      <point x="191.0" y="61.0"/>
      <point x="273.0" y="28.0"/>
      <point x="319.0" y="28.0" type="qcurve" smooth="yes"/>
      <point x="385.0" y="28.0"/>
      <point x="481.0" y="82.0"/>
      <point x="517.0" y="139.0" type="qcurve"/>
      <point x="520.0" y="144.0"/>
      <point x="529.0" y="150.0"/>
      <point x="534.0" y="150.0" type="qcurve" smooth="yes"/>
      <point x="543.0" y="150.0"/>
      <point x="556.0" y="139.0"/>
      <point x="556.0" y="130.0" type="qcurve" smooth="yes"/>
      <point x="556.0" y="127.0"/>
      <point x="553.0" y="119.0"/>
    </contour>
    <contour>
      <point x="149.0" y="324.0" type="line"/>
      <point x="491.0" y="324.0" type="line"/>
      <point x="482.0" y="320.0" type="line"/>
      <point x="482.0" y="473.0" type="line" smooth="yes"/>
      <point x="482.0" y="475.0"/>
      <point x="480.0" y="477.0"/>
      <point x="479.0" y="478.0" type="qcurve"/>
      <point x="447.0" y="510.0"/>
      <point x="365.0" y="543.0"/>
      <point x="318.0" y="543.0" type="qcurve" smooth="yes"/>
      <point x="271.0" y="543.0"/>
      <point x="190.0" y="510.0"/>
      <point x="160.0" y="479.0" type="qcurve" smooth="yes"/>
      <point x="159.0" y="477.0"/>
      <point x="158.0" y="474.0"/>
      <point x="158.0" y="473.0" type="qcurve"/>
      <point x="158.0" y="314.0" type="line"/>
    </contour>
  </outline>
</glyph>
<glyph name="partialdiff" format="2">
  <advance width="613"/>
  <unicode hex="2202"/>
  <note>
partialdiff
</note>
  <outline>
    <contour>
      <point x="580.0" y="293.3333333333333" type="qcurve"/>
      <point x="580.0" y="168.0"/>
      <point x="423.6666666666667" y="-7.0"/>
      <point x="300.6666666666667" y="-7.0" type="qcurve"/>
      <point x="189.33333333333334" y="-7.0"/>
      <point x="33.333333333333336" y="151.0"/>
      <point x="33.333333333333336" y="265.0" type="qcurve"/>
      <point x="33.333333333333336" y="367.0"/>
      <point x="188.33333333333334" y="516.0"/>
      <point x="288.6666666666667" y="516.0" type="qcurve"/>
      <point x="348.3333333333333" y="516.0"/>
      <point x="458.0" y="451.0"/>
      <point x="501.6666666666667" y="362.0" type="qcurve"/>
      <point x="432.3333333333333" y="345.0" type="line"/>
      <point x="427.0" y="428.3333333333333"/>
      <point x="301.6666666666667" y="578.0"/>
      <point x="181.33333333333334" y="609.3333333333334" type="qcurve"/>
      <point x="236.33333333333334" y="748.3333333333334" type="line"/>
      <point x="306.3333333333333" y="728.6666666666666"/>
      <point x="423.0" y="653.0"/>
      <point x="466.6666666666667" y="602.0" type="qcurve" smooth="yes"/>
      <point x="524.6666666666666" y="538.0"/>
      <point x="580.0" y="379.6666666666667"/>
    </contour>
    <contour>
      <point x="189.33333333333331" y="265.0" type="qcurve"/>
      <point x="189.33333333333331" y="213.33333333333334"/>
      <point x="255.0" y="142.66666666666666"/>
      <point x="303.6666666666667" y="142.66666666666666" type="qcurve"/>
      <point x="355.0" y="142.66666666666666"/>
      <point x="425.6666666666667" y="213.33333333333334"/>
      <point x="425.6666666666667" y="265.0" type="qcurve"/>
      <point x="425.6666666666667" y="316.3333333333333"/>
      <point x="355.0" y="386.0"/>
      <point x="303.6666666666667" y="386.0" type="qcurve"/>
      <point x="255.0" y="386.0"/>
      <point x="189.33333333333331" y="316.6666666666667"/>
    </contour>
  </outline>
</glyph>
<glyph name="increment" format="2">
  <advance width="711"/>
  <unicode hex="2206"/>
  <note>
increment
</note>
  <outline>
    <contour>
      <point x="353.3333333333333" y="748.0" type="line"/>
      <point x="727.0" y="-12.666666666666668" type="line"/>
      <point x="728.6666666666666" y="0.0" type="line"/>
      <point x="-16.666666666666668" y="0.0" type="line"/>
      <point x="-10.333333333333332" y="-9.333333333333336" type="line"/>
      <point x="354.6666666666667" y="744.0" type="line"/>
    </contour>
    <contour>
      <point x="403.0" y="530.0" type="line"/>
      <point x="172.33333333333331" y="64.0" type="line"/>
      <point x="115.33333333333333" y="136.33333333333331" type="line"/>
      <point x="604.6666666666666" y="136.33333333333331" type="line"/>
      <point x="539.6666666666666" y="61.0" type="line"/>
      <point x="307.0" y="530.0" type="line"/>
    </contour>
  </outline>
</glyph>
<glyph name="product" format="2">
  <advance width="745"/>
  <unicode hex="220F"/>
  <note>
product
</note>
  <outline>
    <contour>
      <point x="290.3333333333333" y="-200.0" type="line"/>
      <point x="122.33333333333333" y="-200.0" type="line"/>
      <point x="122.33333333333333" y="641.0" type="line"/>
      <point x="290.3333333333333" y="641.0" type="line"/>
    </contour>
    <contour>
      <point x="709.3333333333334" y="545.0" type="line"/>
      <point x="36.0" y="545.0" type="line"/>
      <point x="36.0" y="700.0" type="line"/>
      <point x="709.3333333333334" y="700.0" type="line"/>
    </contour>
    <contour>
      <point x="623.0" y="-200.0" type="line"/>
      <point x="454.6666666666667" y="-200.0" type="line"/>
      <point x="454.6666666666667" y="646.0" type="line"/>
      <point x="623.0" y="646.0" type="line"/>
    </contour>
  </outline>
</glyph>
<glyph name="infinity" format="2">
  <advance width="914"/>
  <unicode hex="221E"/>
  <outline>
    <contour>
      <point x="236.33333333333334" y="33.66666666666667" type="qcurve" smooth="yes"/>
      <point x="149.33333333333334" y="33.66666666666667"/>
      <point x="41.666666666666664" y="153.33333333333334"/>
      <point x="41.666666666666664" y="255.33333333333334" type="qcurve" smooth="yes"/>
      <point x="41.666666666666664" y="356.3333333333333"/>
      <point x="151.33333333333334" y="477.0"/>
      <point x="238.33333333333334" y="477.0" type="qcurve" smooth="yes"/>
      <point x="293.0" y="477.0"/>
      <point x="377.0" y="438.3333333333333"/>
      <point x="432.3333333333333" y="381.0" type="qcurve"/>
      <point x="556.3333333333334" y="239.66666666666666" type="line" smooth="yes"/>
      <point x="584.3333333333334" y="206.66666666666666"/>
      <point x="633.6666666666666" y="182.33333333333331"/>
      <point x="661.6666666666666" y="182.33333333333331" type="qcurve" smooth="yes"/>
      <point x="691.6666666666666" y="182.33333333333331"/>
      <point x="729.0" y="221.33333333333334"/>
      <point x="729.0" y="255.33333333333334" type="qcurve" smooth="yes"/>
      <point x="729.0" y="289.3333333333333"/>
      <point x="691.3333333333334" y="328.3333333333333"/>
      <point x="661.6666666666666" y="328.3333333333333" type="qcurve" smooth="yes"/>
      <point x="634.3333333333334" y="328.3333333333333"/>
      <point x="582.3333333333334" y="301.0"/>
      <point x="554.6666666666666" y="273.3333333333333" type="qcurve"/>
      <point x="426.3333333333333" y="126.33333333333333" type="line" smooth="yes"/>
      <point x="377.3333333333333" y="69.33333333333333"/>
      <point x="290.6666666666667" y="33.66666666666667"/>
    </contour>
    <contour>
      <point x="184.66666666666666" y="255.33333333333334" type="qcurve" smooth="yes"/>
      <point x="184.66666666666666" y="221.33333333333334"/>
      <point x="222.0" y="182.33333333333331"/>
      <point x="252.0" y="182.33333333333331" type="qcurve" smooth="yes"/>
      <point x="281.0" y="182.33333333333331"/>
      <point x="328.3333333333333" y="209.0"/>
      <point x="357.3333333333333" y="239.66666666666666" type="qcurve"/>
      <point x="481.3333333333333" y="381.0" type="line" smooth="yes"/>
      <point x="532.0" y="440.0"/>
      <point x="620.6666666666666" y="477.0"/>
      <point x="675.3333333333334" y="477.0" type="qcurve" smooth="yes"/>
      <point x="762.3333333333334" y="477.0"/>
      <point x="872.0" y="356.3333333333333"/>
      <point x="872.0" y="255.33333333333334" type="qcurve" smooth="yes"/>
      <point x="872.0" y="153.33333333333334"/>
      <point x="764.3333333333334" y="33.66666666666667"/>
      <point x="677.3333333333334" y="33.66666666666667" type="qcurve" smooth="yes"/>
      <point x="623.6666666666666" y="33.66666666666667"/>
      <point x="539.0" y="73.66666666666667"/>
      <point x="488.0" y="125.66666666666667" type="qcurve"/>
      <point x="358.6666666666667" y="273.3333333333333" type="line" smooth="yes"/>
      <point x="334.0" y="302.3333333333333"/>
      <point x="279.3333333333333" y="328.3333333333333"/>
      <point x="251.0" y="328.3333333333333" type="qcurve" smooth="yes"/>
      <point x="222.0" y="328.3333333333333"/>
      <point x="184.66666666666666" y="289.3333333333333"/>
    </contour>
  </outline>
</glyph>
<glyph name="integral" format="2">
  <advance width="553"/>
  <unicode hex="222B"/>
  <note>
integral
</note>
  <outline>
    <contour>
      <point x="111.0" y="-127.0" type="qcurve" smooth="yes"/>
      <point x="88.0" y="-127.0"/>
      <point x="30.0" y="-103.0"/>
      <point x="0.0" y="-81.0" type="qcurve"/>
      <point x="47.0" y="0.0" type="line"/>
      <point x="59.0" y="-10.0"/>
      <point x="96.0" y="-21.0"/>
      <point x="113.0" y="-21.0" type="qcurve" smooth="yes"/>
      <point x="141.0" y="-21.0"/>
      <point x="180.0" y="26.0"/>
      <point x="187.0" y="68.0" type="qcurve"/>
      <point x="268.0" y="547.0" type="line" smooth="yes"/>
      <point x="285.0" y="646.0"/>
      <point x="373.0" y="745.0"/>
      <point x="444.0" y="745.0" type="qcurve" smooth="yes"/>
      <point x="482.0" y="745.0"/>
      <point x="540.0" y="728.0"/>
      <point x="561.0" y="710.0" type="qcurve"/>
      <point x="532.0" y="615.0" type="line"/>
      <point x="511.0" y="629.0"/>
      <point x="464.0" y="644.0"/>
      <point x="445.0" y="644.0" type="qcurve" smooth="yes"/>
      <point x="416.0" y="644.0"/>
      <point x="378.0" y="597.0"/>
      <point x="370.0" y="550.0" type="qcurve"/>
      <point x="290.0" y="71.0" type="line" smooth="yes"/>
      <point x="273.0" y="-28.0"/>
      <point x="184.0" y="-127.0"/>
    </contour>
  </outline>
</glyph>
<glyph name="lessequal" format="2">
  <advance width="627"/>
  <unicode hex="2264"/>
  <note>
lessequal
</note>
  <outline>
    <contour>
      <point x="561.6666666666666" y="0.0" type="line"/>
      <point x="64.66666666666667" y="0.0" type="line"/>
      <point x="64.66666666666667" y="135.33333333333331" type="line"/>
      <point x="561.6666666666666" y="135.33333333333331" type="line"/>
    </contour>
    <contour>
      <point x="540.3333333333334" y="281.6666666666667" type="line"/>
      <point x="497.0" y="158.0" type="line"/>
      <point x="65.0" y="308.6666666666667" type="line"/>
      <point x="65.0" y="411.0" type="line"/>
      <point x="497.0" y="561.3333333333334" type="line"/>
      <point x="542.6666666666666" y="440.0" type="line"/>
      <point x="179.33333333333331" y="333.0" type="line"/>
      <point x="177.66666666666666" y="388.0" type="line"/>
    </contour>
  </outline>
</glyph>
<glyph name="greaterequal" format="2">
  <advance width="627"/>
  <unicode hex="2265"/>
  <note>
greaterequal
</note>
  <outline>
    <contour>
      <point x="561.6666666666666" y="0.0" type="line"/>
      <point x="64.66666666666667" y="0.0" type="line"/>
      <point x="64.66666666666667" y="140.66666666666666" type="line"/>
      <point x="561.6666666666666" y="140.66666666666666" type="line"/>
    </contour>
    <contour>
      <point x="74.66666666666667" y="443.0" type="line"/>
      <point x="118.0" y="570.0" type="line"/>
      <point x="550.0" y="419.3333333333333" type="line"/>
      <point x="550.0" y="313.6666666666667" type="line"/>
      <point x="118.0" y="163.33333333333334" type="line"/>
      <point x="72.33333333333333" y="288.0" type="line"/>
      <point x="435.6666666666667" y="395.0" type="line"/>
      <point x="437.3333333333333" y="336.6666666666667" type="line"/>
    </contour>
  </outline>
</glyph>
<glyph name="dal-ar.fina" format="2">
  <advance width="572"/>
  <unicode hex="FEAA"/>
  <anchor x="242" y="0" name="bottom"/>
  <anchor x="283" y="487" name="top"/>
  <outline>
    <contour>
      <point x="319" y="0" type="qcurve"/>
      <point x="59" y="0" type="line"/>
      <point x="40" y="102" type="line"/>
      <point x="319" y="102" type="line" smooth="yes"/>
      <point x="362" y="102"/>
      <point x="410" y="118"/>
      <point x="423" y="138" type="qcurve"/>
      <point x="459" y="56" type="line"/>
      <point x="446" y="28"/>
      <point x="375" y="0"/>
    </contour>
    <contour>
      <point x="370" y="131" type="qcurve"/>
      <point x="205" y="388" type="line"/>
      <point x="283" y="487" type="line"/>
      <point x="458" y="185" type="line" smooth="yes"/>
      <point x="486" y="136"/>
      <point x="529" y="102"/>
      <point x="562" y="102" type="qcurve"/>
      <point x="572" y="102" type="line"/>
      <point x="572" y="0" type="line"/>
      <point x="562" y="0" type="line" smooth="yes"/>
      <point x="503" y="0"/>
      <point x="417" y="59"/>
    </contour>
  </outline>
</glyph>
<glyph name="meem-ar.medi" format="2">
  <advance width="640"/>
  <unicode hex="FEE4"/>
  <anchor x="320.0" y="0" name="bottom"/>
  <anchor x="346.0" y="405.0" name="top"/>
  <outline>
    <contour>
      <point x="215.0" y="181.0" type="qcurve" smooth="yes"/>
      <point x="142.0" y="55.0"/>
      <point x="70.0" y="0.0"/>
      <point x="2.0" y="0.0" type="qcurve"/>
      <point x="0.0" y="0.0" type="line"/>
      <point x="0.0" y="102.0" type="line"/>
      <point x="2.0" y="102.0" type="line"/>
      <point x="40.0" y="102.0"/>
      <point x="84.0" y="143.0"/>
      <point x="127.0" y="222.0" type="qcurve" smooth="yes"/>
      <point x="177.0" y="314.0"/>
      <point x="286.0" y="405.0"/>
      <point x="346.0" y="405.0" type="qcurve" smooth="yes"/>
      <point x="407.0" y="405.0"/>
      <point x="489.0" y="315.0"/>
      <point x="528.0" y="207.0" type="qcurve" smooth="yes"/>
      <point x="538.0" y="181.0"/>
      <point x="556.0" y="143.0"/>
      <point x="565.0" y="131.0" type="qcurve" smooth="yes"/>
      <point x="577.0" y="116.0"/>
      <point x="602.0" y="102.0"/>
      <point x="638.0" y="102.0" type="qcurve"/>
      <point x="640.0" y="102.0" type="line"/>
      <point x="640.0" y="0.0" type="line"/>
      <point x="638.0" y="0.0" type="line"/>
      <point x="559.0" y="0.0"/>
      <point x="467.0" y="73.0"/>
      <point x="434.0" y="167.0" type="qcurve" smooth="yes"/>
      <point x="408.0" y="242.0"/>
      <point x="368.0" y="301.0"/>
      <point x="338.0" y="301.0" type="qcurve" smooth="yes"/>
      <point x="311.0" y="301.0"/>
      <point x="250.0" y="242.0"/>
    </contour>
    <contour>
      <point x="416.0" y="-16.0" type="qcurve" smooth="yes"/>
      <point x="343.0" y="-16.0"/>
      <point x="193.0" y="50.0"/>
      <point x="140.0" y="108.0" type="qcurve"/>
      <point x="196.0" y="172.0" type="line"/>
      <point x="262.0" y="118.0"/>
      <point x="419.0" y="77.0"/>
      <point x="494.0" y="94.0" type="qcurve"/>
      <point x="535.0" y="47.0" type="line"/>
      <point x="510.0" y="11.0"/>
      <point x="456.0" y="-16.0"/>
    </contour>
  </outline>
</glyph>
<glyph name=".notdef" format="2">
  <advance width="584"/>
  <note>
.notdef
</note>
  <outline>
    <contour>
      <point x="40.0" y="35.0" type="qcurve"/>
      <point x="40.0" y="665.0" type="line" smooth="yes"/>
      <point x="40.0" y="682.0"/>
      <point x="58.0" y="700.0"/>
      <point x="75.0" y="700.0" type="qcurve"/>
      <point x="509.0" y="700.0" type="line" smooth="yes"/>
      <point x="526.0" y="700.0"/>
      <point x="544.0" y="682.0"/>
      <point x="544.0" y="665.0" type="qcurve"/>
      <point x="544.0" y="35.0" type="line" smooth="yes"/>
      <point x="544.0" y="18.0"/>
      <point x="526.0" y="0.0"/>
      <point x="509.0" y="0.0" type="qcurve"/>
      <point x="75.0" y="0.0" type="line" smooth="yes"/>
      <point x="58.0" y="0.0"/>
      <point x="40.0" y="18.0"/>
    </contour>
    <contour>
      <point x="509.0" y="670.0" type="qcurve"/>
      <point x="95.0" y="670.0" type="line" smooth="yes"/>
      <point x="92.0" y="670.0"/>
      <point x="90.0" y="666.0"/>
      <point x="92.0" y="664.0" type="qcurve"/>
      <point x="508.0" y="65.0" type="line"/>
      <point x="510.0" y="62.0"/>
      <point x="514.0" y="63.0"/>
      <point x="514.0" y="67.0" type="qcurve"/>
      <point x="514.0" y="665.0" type="line" smooth="yes"/>
      <point x="514.0" y="667.0"/>
      <point x="511.0" y="670.0"/>
    </contour>
    <contour>
      <point x="70.0" y="633.0" type="qcurve"/>
      <point x="70.0" y="35.0" type="line" smooth="yes"/>
      <point x="70.0" y="33.0"/>
      <point x="73.0" y="30.0"/>
      <point x="75.0" y="30.0" type="qcurve"/>
      <point x="488.0" y="30.0" type="line" smooth="yes"/>
      <point x="491.0" y="30.0"/>
      <point x="493.0" y="34.0"/>
      <point x="491.0" y="36.0" type="qcurve"/>
      <point x="76.0" y="635.0" type="line"/>
      <point x="74.0" y="638.0"/>
      <point x="70.0" y="637.0"/>
    </contour>
  </outline>
</glyph>
<glyph name="acutecomb.case" format="2">
  <anchor x="77.0" y="515.0" name="_top"/>
  <anchor x="125.0" y="703.0" name="top"/>
  <outline>
    <contour>
      <point x="225.0" y="659.0" type="line"/>
      <point x="51.0" y="565.0" type="line"/>
      <point x="17.0" y="616.0" type="line"/>
      <point x="160.0" y="741.0" type="line"/>
    </contour>
  </outline>
</glyph>
<glyph name="behDotless-ar.init" format="2">
  <advance width="341"/>
  <anchor x="158.0" y="0" name="bottom"/>
  <anchor x="151.0" y="438.0" name="top"/>
  <outline>
    <contour>
      <point x="0.0" y="0.0" type="line"/>
      <point x="0.0" y="102.0" type="line"/>
      <point x="179.0" y="102.0" type="line"/>
      <point x="179.0" y="158.0"/>
      <point x="146.0" y="268.0"/>
      <point x="104.0" y="346.0" type="qcurve"/>
      <point x="195.0" y="438.0" type="line"/>
      <point x="262.0" y="292.0"/>
      <point x="278.0" y="98.0"/>
      <point x="243.0" y="0.0" type="qcurve"/>
    </contour>
  </outline>
</glyph>
<glyph name="behDotless-ar.init.wide" format="2">
  <advance width="361"/>
  <anchor x="178.0" y="0" name="bottom"/>
  <anchor x="171.0" y="438.0" name="top"/>
  <outline>
    <contour>
      <point x="0.0" y="0.0" type="line"/>
      <point x="0.0" y="102.0" type="line"/>
      <point x="199.0" y="102.0" type="line"/>
      <point x="199.0" y="158.0"/>
      <point x="166.0" y="268.0"/>
      <point x="124.0" y="346.0" type="qcurve"/>
      <point x="215.0" y="438.0" type="line"/>
      <point x="282.0" y="292.0"/>
      <point x="298.0" y="98.0"/>
      <point x="263.0" y="0.0" type="qcurve"/>
    </contour>
  </outline>
</glyph>
<glyph name="commaaccentcomb.case" format="2">
  <anchor x="144.0" y="0" name="_bottom"/>
  <anchor x="122.0" y="-289.0" name="bottom"/>
  <outline>
    <contour>
      <point x="86.33333333333333" y="-287.0" type="qcurve"/>
      <point x="43.66666666666667" y="-230.33333333333334" type="line"/>
      <point x="80.0" y="-217.33333333333334"/>
      <point x="119.0" y="-188.0"/>
      <point x="119.0" y="-171.66666666666666" type="qcurve" smooth="yes"/>
      <point x="119.0" y="-163.0"/>
      <point x="106.66666666666667" y="-153.66666666666666"/>
      <point x="94.0" y="-148.0" type="qcurve" smooth="yes"/>
      <point x="72.66666666666667" y="-139.0"/>
      <point x="54.0" y="-113.0"/>
      <point x="54.0" y="-92.0" type="qcurve"/>
      <point x="54.0" y="-58.0"/>
      <point x="101.33333333333333" y="-24.333333333333336"/>
      <point x="137.0" y="-24.333333333333336" type="qcurve"/>
      <point x="180.66666666666666" y="-24.333333333333336"/>
      <point x="241.0" y="-74.33333333333333"/>
      <point x="241.0" y="-124.66666666666667" type="qcurve" smooth="yes"/>
      <point x="241.0" y="-186.0"/>
      <point x="157.66666666666666" y="-266.6666666666667"/>
    </contour>
  </outline>
</glyph>
<glyph name="dblgravecomb.case" format="2">
  <anchor x="248.0" y="490.0" name="_top"/>
  <anchor x="248.0" y="709.0" name="top"/>
  <outline>
    <contour>
      <point x="214.0" y="594.0" type="line"/>
      <point x="180.0" y="553.0" type="line"/>
      <point x="20.0" y="637.0" type="line"/>
      <point x="75.0" y="709.0" type="line"/>
    </contour>
    <contour>
      <point x="404.0" y="594.0" type="line"/>
      <point x="370.0" y="553.0" type="line"/>
      <point x="210.0" y="637.0" type="line"/>
      <point x="265.0" y="709.0" type="line"/>
    </contour>
  </outline>
</glyph>
<glyph name="dieresiscomb.case" format="2">
  <anchor x="233.33333333333331" y="531.6666666666666" name="_top"/>
  <anchor x="237.33333333333334" y="684.0" name="top"/>
  <outline>
    <contour>
      <point x="200.66666666666666" y="650.3333333333334" type="qcurve" smooth="yes"/>
      <point x="200.66666666666666" y="611.3333333333334"/>
      <point x="152.33333333333334" y="562.0"/>
      <point x="111.0" y="562.0" type="qcurve" smooth="yes"/>
      <point x="68.0" y="562.0"/>
      <point x="21.333333333333336" y="608.0"/>
      <point x="21.333333333333336" y="650.3333333333334" type="qcurve" smooth="yes"/>
      <point x="21.333333333333336" y="689.3333333333334"/>
      <point x="69.66666666666667" y="738.6666666666666"/>
      <point x="111.0" y="738.6666666666666" type="qcurve" smooth="yes"/>
      <point x="154.0" y="738.6666666666666"/>
      <point x="200.66666666666666" y="693.3333333333334"/>
    </contour>
    <contour>
      <point x="450.0" y="650.3333333333334" type="qcurve" smooth="yes"/>
      <point x="450.0" y="611.3333333333334"/>
      <point x="401.66666666666663" y="562.0"/>
      <point x="360.3333333333333" y="562.0" type="qcurve" smooth="yes"/>
      <point x="317.3333333333333" y="562.0"/>
      <point x="270.6666666666667" y="608.0"/>
      <point x="270.6666666666667" y="650.3333333333334" type="qcurve" smooth="yes"/>
      <point x="270.6666666666667" y="689.3333333333334"/>
      <point x="319.0" y="738.6666666666666"/>
      <point x="360.3333333333333" y="738.6666666666666" type="qcurve" smooth="yes"/>
      <point x="403.3333333333333" y="738.6666666666666"/>
      <point x="450.0" y="693.3333333333334"/>
    </contour>
  </outline>
</glyph>
<glyph name="dotbelowcomb.case" format="2">
  <anchor x="131.66666666666666" y="0" name="_bottom"/>
  <anchor x="131.66666666666666" y="-194.0" name="bottom"/>
  <outline>
    <contour>
      <point x="234.33333333333331" y="-128.0" type="qcurve" smooth="yes"/>
      <point x="234.33333333333331" y="-167.0"/>
      <point x="179.33333333333331" y="-216.33333333333334"/>
      <point x="132.0" y="-216.33333333333334" type="qcurve" smooth="yes"/>
      <point x="83.66666666666667" y="-216.33333333333334"/>
      <point x="29.666666666666668" y="-170.33333333333334"/>
      <point x="29.666666666666668" y="-128.0" type="qcurve" smooth="yes"/>
      <point x="29.666666666666668" y="-89.0"/>
      <point x="84.66666666666667" y="-39.66666666666667"/>
      <point x="132.0" y="-39.66666666666667" type="qcurve" smooth="yes"/>
      <point x="180.33333333333331" y="-39.66666666666667"/>
      <point x="234.33333333333331" y="-85.66666666666667"/>
    </contour>
  </outline>
</glyph>
<glyph name="five.dnom" format="2">
  <advance width="358"/>
  <outline>
    <contour>
      <point x="326.0" y="123.66666666666667" type="qcurve"/>
      <point x="326.0" y="63.333333333333336"/>
      <point x="233.6341463414634" y="-9.666666666666666"/>
      <point x="159.66666666666666" y="-9.666666666666666" type="qcurve"/>
      <point x="128.3838383838384" y="-9.666666666666666"/>
      <point x="53.45251054290006" y="13.077283759491626"/>
      <point x="30.0" y="30.666666666666668" type="qcurve"/>
      <point x="80.33333333333333" y="111.33333333333333" type="line"/>
      <point x="99.33333333333333" y="100.33333333333333"/>
      <point x="140.89247311827958" y="88.33333333333333"/>
      <point x="164.33333333333334" y="88.33333333333333" type="qcurve"/>
      <point x="186.63809523809525" y="88.33333333333333"/>
      <point x="212.0" y="109.66666666666666"/>
      <point x="212.0" y="127.33333333333333" type="qcurve"/>
      <point x="212.0" y="143.33333333333334"/>
      <point x="186.94736842105263" y="164.66666666666666"/>
      <point x="165.33333333333334" y="164.66666666666666" type="qcurve"/>
      <point x="147.48101265822785" y="164.66666666666666"/>
      <point x="111.97256839812691" y="156.71687437220947"/>
      <point x="91.33333333333333" y="144.0" type="qcurve"/>
      <point x="43.66666666666667" y="191.33333333333334" type="line"/>
      <point x="70.66666666666667" y="367.6666666666667" type="line"/>
      <point x="307.0" y="367.6666666666667" type="line"/>
      <point x="307.0" y="266.6666666666667" type="line"/>
      <point x="123.0" y="266.6666666666667" type="line"/>
      <point x="170.0" y="319.6666666666667" type="line"/>
      <point x="140.33333333333334" y="181.33333333333334" type="line"/>
      <point x="99.33333333333333" y="195.0" type="line"/>
      <point x="117.33333333333333" y="216.66666666666666"/>
      <point x="165.0" y="234.33333333333334"/>
      <point x="199.0" y="234.33333333333334" type="qcurve"/>
      <point x="252.0" y="234.33333333333334"/>
      <point x="326.0" y="170.13978494623657"/>
    </contour>
  </outline>
</glyph>
<glyph name="hookabovecomb.case" format="2">
  <anchor x="165.0" y="534.0" name="_top"/>
  <anchor x="155.0" y="760.0" name="top"/>
  <outline>
    <contour>
      <point x="83.0" y="666.0" type="qcurve"/>
      <point x="50.0" y="714.0" type="line"/>
      <point x="75.0" y="739.0"/>
      <point x="119.0" y="760.0"/>
      <point x="145.0" y="760.0" type="qcurve" smooth="yes"/>
      <point x="194.0" y="760.0"/>
      <point x="247.0" y="715.0"/>
      <point x="247.0" y="678.0" type="qcurve" smooth="yes"/>
      <point x="247.0" y="666.0"/>
      <point x="239.0" y="644.0"/>
      <point x="223.0" y="621.0" type="qcurve" smooth="yes"/>
      <point x="216.0" y="611.0"/>
      <point x="204.0" y="586.0"/>
      <point x="203.0" y="578.0" type="qcurve"/>
      <point x="135.0" y="578.0" type="line"/>
      <point x="135.0" y="591.0"/>
      <point x="143.0" y="617.0"/>
      <point x="151.0" y="627.0" type="qcurve" smooth="yes"/>
      <point x="169.0" y="651.0"/>
      <point x="176.0" y="665.0"/>
      <point x="176.0" y="671.0" type="qcurve" smooth="yes"/>
      <point x="176.0" y="686.0"/>
      <point x="160.0" y="699.0"/>
      <point x="141.0" y="699.0" type="qcurve" smooth="yes"/>
      <point x="128.0" y="699.0"/>
      <point x="101.0" y="684.0"/>
    </contour>
  </outline>
</glyph>
<glyph name="macroncomb.case" format="2">
  <anchor x="214.0" y="536.0" name="_top"/>
  <anchor x="214.0" y="709.0" name="top"/>
  <outline>
    <contour>
      <point x="397.0" y="602.0" type="line"/>
      <point x="34.0" y="602.0" type="line"/>
      <point x="34.0" y="719.0" type="line"/>
      <point x="397.0" y="719.0" type="line"/>
    </contour>
  </outline>
</glyph>
<glyph name="nine.dnom" format="2">
  <advance width="373"/>
  <outline>
    <contour>
      <point x="338.0" y="216.33333333333334" type="qcurve"/>
      <point x="338.0" y="118.0"/>
      <point x="244.66666666666666" y="-11.333333333333334"/>
      <point x="161.33333333333334" y="-11.333333333333334" type="qcurve"/>
      <point x="130.33333333333334" y="-11.333333333333334"/>
      <point x="68.66666666666667" y="14.0"/>
      <point x="45.66666666666667" y="34.0" type="qcurve"/>
      <point x="91.33333333333333" y="110.0" type="line"/>
      <point x="105.0" y="100.33333333333333"/>
      <point x="143.33333333333334" y="89.33333333333333"/>
      <point x="159.0" y="89.33333333333333" type="qcurve" smooth="yes"/>
      <point x="191.33333333333334" y="89.33333333333333"/>
      <point x="224.66666666666666" y="136.66666666666666"/>
      <point x="226.66666666666666" y="182.66666666666666" type="qcurve"/>
      <point x="290.3333333333333" y="250.33333333333334" type="line"/>
      <point x="272.6666666666667" y="194.66666666666666"/>
      <point x="207.0" y="130.33333333333334"/>
      <point x="166.0" y="130.33333333333334" type="qcurve"/>
      <point x="108.33333333333333" y="130.33333333333334"/>
      <point x="35.0" y="197.0"/>
      <point x="35.0" y="248.66666666666666" type="qcurve"/>
      <point x="35.0" y="306.6666666666667"/>
      <point x="116.66666666666667" y="378.6666666666667"/>
      <point x="181.0" y="378.6666666666667" type="qcurve"/>
      <point x="249.66666666666666" y="378.6666666666667"/>
      <point x="338.0" y="291.0"/>
    </contour>
    <contour>
      <point x="185.33333333333331" y="250.33333333333334" type="qcurve"/>
      <point x="185.33333333333331" y="253.66666666666666"/>
      <point x="181.66666666666666" y="257.0"/>
      <point x="178.66666666666666" y="257.0" type="qcurve"/>
      <point x="177.33333333333334" y="257.0"/>
      <point x="173.66666666666669" y="253.33333333333331"/>
      <point x="173.66666666666669" y="250.0" type="qcurve"/>
      <point x="173.66666666666669" y="248.66666666666666"/>
      <point x="177.0" y="244.66666666666669"/>
      <point x="178.66666666666666" y="244.66666666666669" type="qcurve"/>
      <point x="181.33333333333331" y="244.66666666666669"/>
      <point x="185.33333333333331" y="248.0"/>
    </contour>
  </outline>
</glyph>
<glyph name="ogonekcomb.case" format="2">
  <outline>
    <contour>
      <point x="143.0" y="-210.33333333333334" type="qcurve" smooth="yes"/>
      <point x="91.33333333333333" y="-210.33333333333334"/>
      <point x="20.666666666666668" y="-148.82866043613708"/>
      <point x="20.666666666666668" y="-101.33333333333333" type="qcurve" smooth="yes"/>
      <point x="20.666666666666668" y="-50.18518518518518"/>
      <point x="110.72366448333553" y="28.19297719555614"/>
      <point x="189.0" y="49.333333333333336" type="qcurve"/>
      <point x="211.0" y="43.666666666666664" type="line"/>
      <point x="233.0" y="-0.33333333333333337" type="line"/>
      <point x="193.0" y="-9.666666666666666"/>
      <point x="135.0" y="-53.666666666666664"/>
      <point x="135.0" y="-79.33333333333333" type="qcurve" smooth="yes"/>
      <point x="135.0" y="-91.33333333333333"/>
      <point x="149.33333333333334" y="-106.0"/>
      <point x="161.66666666666666" y="-106.0" type="qcurve" smooth="yes"/>
      <point x="171.33333333333334" y="-106.0"/>
      <point x="185.33333333333334" y="-94.33333333333334"/>
      <point x="193.33333333333334" y="-82.33333333333334" type="qcurve"/>
      <point x="259.3333333333333" y="-143.0" type="line"/>
      <point x="245.4289403335671" y="-168.9517661107215"/>
      <point x="181.66666666666666" y="-210.33333333333334"/>
    </contour>
  </outline>
</glyph>
<glyph name="one.dnom" format="2">
  <advance width="281"/>
  <outline>
    <contour>
      <point x="201.0" y="346.0" type="line"/>
      <point x="201.0" y="-2.0" type="line"/>
      <point x="182.0" y="-2.0"/>
      <point x="145.0" y="-2.0"/>
      <point x="126.0" y="-2.0" type="qcurve"/>
      <point x="126.0" y="272.0" type="line"/>
      <point x="132.0" y="254.0" type="line"/>
      <point x="82.0" y="222.0" type="line"/>
      <point x="47.0" y="288.0" type="line"/>
      <point x="145.0" y="346.0" type="line"/>
    </contour>
  </outline>
</glyph>
<glyph name="qafDotless-ar.fina" format="2">
  <advance width="788"/>
  <anchor x="347.0" y="-230.0" name="bottom"/>
  <anchor x="518.0" y="387.0" name="top"/>
  <outline>
    <contour>
      <point x="358.0" y="-128.0" type="qcurve" smooth="yes"/>
      <point x="490.0" y="-128.0"/>
      <point x="626.0" y="-21.0"/>
      <point x="626.0" y="84.0" type="qcurve" smooth="yes"/>
      <point x="626.0" y="167.0"/>
      <point x="562.0" y="285.0"/>
      <point x="512.0" y="285.0" type="qcurve" smooth="yes"/>
      <point x="472.0" y="285.0"/>
      <point x="413.0" y="218.0"/>
      <point x="413.0" y="176.0" type="qcurve" smooth="yes"/>
      <point x="413.0" y="137.0"/>
      <point x="475.0" y="102.0"/>
      <point x="541.0" y="102.0" type="qcurve"/>
      <point x="788.0" y="102.0" type="line"/>
      <point x="788.0" y="0.0" type="line"/>
      <point x="531.0" y="0.0" type="line" smooth="yes"/>
      <point x="428.0" y="0.0"/>
      <point x="318.0" y="82.0"/>
      <point x="318.0" y="156.0" type="qcurve" smooth="yes"/>
      <point x="318.0" y="254.0"/>
      <point x="436.0" y="387.0"/>
      <point x="518.0" y="387.0" type="qcurve" smooth="yes"/>
      <point x="607.0" y="387.0"/>
      <point x="718.0" y="229.0"/>
      <point x="718.0" y="102.0" type="qcurve" smooth="yes"/>
      <point x="718.0" y="-57.0"/>
      <point x="526.0" y="-230.0"/>
      <point x="347.0" y="-230.0" type="qcurve" smooth="yes"/>
      <point x="196.0" y="-230.0"/>
      <point x="30.0" y="-98.0"/>
      <point x="30.0" y="23.0" type="qcurve" smooth="yes"/>
      <point x="30.0" y="66.0"/>
      <point x="61.0" y="187.0"/>
      <point x="89.0" y="250.0" type="qcurve"/>
      <point x="33.0" y="228.0" type="line"/>
      <point x="210.0" y="169.0" type="line"/>
      <point x="177.0" y="223.0" type="line"/>
      <point x="155.0" y="171.0"/>
      <point x="131.0" y="75.0"/>
      <point x="131.0" y="38.0" type="qcurve" smooth="yes"/>
      <point x="131.0" y="-44.0"/>
      <point x="246.0" y="-128.0"/>
    </contour>
  </outline>
</glyph>
<glyph name="reh-ar.yeh" format="2">
  <advance width="372"/>
  <anchor x="33" y="-230" name="bottom"/>
  <anchor x="126" y="378" name="top"/>
  <outline>
    <contour>
      <point x="238" y="-135" type="qcurve" smooth="yes"/>
      <point x="200" y="-182"/>
      <point x="96" y="-230"/>
      <point x="33" y="-230" type="qcurve" smooth="yes"/>
      <point x="7" y="-230"/>
      <point x="-52" y="-218"/>
      <point x="-81" y="-206" type="qcurve"/>
      <point x="-50" y="-117" type="line"/>
      <point x="-31" y="-122"/>
      <point x="3" y="-128"/>
      <point x="17" y="-128" type="qcurve" smooth="yes"/>
      <point x="106" y="-128"/>
      <point x="218" y="-11"/>
      <point x="218" y="81" type="qcurve" smooth="yes"/>
      <point x="218" y="126"/>
      <point x="158" y="237"/>
      <point x="91" y="320" type="qcurve"/>
      <point x="165" y="413" type="line"/>
      <point x="249" y="300"/>
      <point x="312" y="155"/>
      <point x="312" y="81" type="qcurve" smooth="yes"/>
      <point x="312" y="22"/>
      <point x="273" y="-92"/>
    </contour>
  </outline>
</glyph>
<glyph name="ringcomb.case" format="2">
  <anchor x="159.0" y="700.0" name="_top"/>
  <anchor x="159.0" y="991.0" name="top"/>
  <outline>
    <contour>
      <point x="269.0" y="852.0" type="qcurve"/>
      <point x="269.0" y="810.0"/>
      <point x="203.0" y="747.0"/>
      <point x="159.0" y="747.0" type="qcurve"/>
      <point x="116.0" y="747.0"/>
      <point x="50.0" y="810.0"/>
      <point x="50.0" y="852.0" type="qcurve"/>
      <point x="50.0" y="895.0"/>
      <point x="115.0" y="958.0"/>
      <point x="159.0" y="958.0" type="qcurve"/>
      <point x="203.0" y="958.0"/>
      <point x="269.0" y="895.0"/>
    </contour>
    <contour>
      <point x="110.0" y="852.0" type="qcurve"/>
      <point x="110.0" y="833.0"/>
      <point x="139.0" y="806.0"/>
      <point x="159.0" y="806.0" type="qcurve"/>
      <point x="180.0" y="806.0"/>
      <point x="209.0" y="833.0"/>
      <point x="209.0" y="852.0" type="qcurve"/>
      <point x="209.0" y="873.0"/>
      <point x="180.0" y="899.0"/>
      <point x="159.0" y="899.0" type="qcurve"/>
      <point x="138.0" y="899.0"/>
      <point x="110.0" y="872.0"/>
    </contour>
  </outline>
</glyph>
<glyph name="tildecomb.case" format="2">
  <anchor x="210.0" y="465.0" name="_top"/>
  <anchor x="220.0" y="733.0" name="top"/>
  <outline>
    <contour>
      <point x="123.66666666666667" y="565.0" type="qcurve"/>
      <point x="20.0" y="565.0" type="line"/>
      <point x="20.0" y="632.3333333333334"/>
      <point x="87.66666666666667" y="711.3333333333334"/>
      <point x="146.0" y="711.3333333333334" type="qcurve" smooth="yes"/>
      <point x="161.0" y="711.3333333333334"/>
      <point x="195.0" y="702.3333333333334"/>
      <point x="227.0" y="688.3333333333334" type="qcurve" smooth="yes"/>
      <point x="249.33333333333334" y="678.6666666666666"/>
      <point x="268.0" y="671.3333333333334"/>
      <point x="275.3333333333333" y="671.3333333333334" type="qcurve"/>
      <point x="288.3333333333333" y="671.3333333333334"/>
      <point x="301.3333333333333" y="693.3333333333334"/>
      <point x="300.3333333333333" y="711.3333333333334" type="qcurve"/>
      <point x="403.0" y="711.3333333333334" type="line"/>
      <point x="403.0" y="648.3333333333334"/>
      <point x="340.6666666666667" y="564.0"/>
      <point x="291.0" y="564.0" type="qcurve"/>
      <point x="274.0" y="564.0"/>
      <point x="235.0" y="574.0"/>
      <point x="198.0" y="588.0" type="qcurve" smooth="yes"/>
      <point x="175.66666666666666" y="596.6666666666666"/>
      <point x="157.0" y="604.0"/>
      <point x="150.66666666666666" y="604.0" type="qcurve" smooth="yes"/>
      <point x="138.66666666666666" y="604.0"/>
      <point x="123.66666666666667" y="583.0"/>
    </contour>
  </outline>
</glyph>
<glyph name="two.dnom" format="2">
  <advance width="346"/>
  <outline>
    <contour>
      <point x="296.0" y="0.0" type="line"/>
      <point x="65.0" y="0.0" type="line"/>
      <point x="56.0" y="71.0" type="line"/>
      <point x="133.0" y="148.0" type="line" smooth="yes"/>
      <point x="139.0" y="154.0"/>
      <point x="171.0" y="185.0"/>
      <point x="179.0" y="194.0" type="qcurve" smooth="yes"/>
      <point x="195.0" y="211.0"/>
      <point x="209.0" y="237.0"/>
      <point x="209.0" y="249.0" type="qcurve"/>
      <point x="209.0" y="267.0"/>
      <point x="187.0" y="289.0"/>
      <point x="169.0" y="289.0" type="qcurve"/>
      <point x="154.0" y="289.0"/>
      <point x="118.0" y="265.0"/>
      <point x="94.0" y="238.0" type="qcurve"/>
      <point x="42.0" y="275.0" type="line"/>
      <point x="65.0" y="314.0"/>
      <point x="137.0" y="361.0"/>
      <point x="176.0" y="361.0" type="qcurve"/>
      <point x="230.0" y="361.0"/>
      <point x="293.0" y="299.0"/>
      <point x="293.0" y="251.0" type="qcurve"/>
      <point x="293.0" y="229.0"/>
      <point x="264.0" y="181.0"/>
      <point x="205.0" y="123.0" type="qcurve"/>
      <point x="138.0" y="58.0" type="line"/>
      <point x="142.0" y="67.0" type="line"/>
      <point x="296.0" y="67.0" type="line"/>
    </contour>
  </outline>
</glyph>
<glyph name="twodotshorizontalabove-ar" format="2">
  <advance width="441"/>
  <anchor x="215.0" y="438.0" name="_top"/>
  <anchor x="215.0" y="709.0" name="top"/>
  <outline>
    <contour>
      <point x="208.0" y="627.0" type="line"/>
      <point x="131.0" y="545.0" type="line"/>
      <point x="50.0" y="627.0" type="line"/>
      <point x="127.0" y="709.0" type="line"/>
    </contour>
    <contour>
      <point x="380.0" y="627.0" type="line"/>
      <point x="303.0" y="545.0" type="line"/>
      <point x="222.0" y="627.0" type="line"/>
      <point x="299.0" y="709.0" type="line"/>
    </contour>
  </outline>
</glyph>
<glyph name="zero.dnom" format="2">
  <advance width="431"/>
  <outline>
    <contour>
      <point x="394.0" y="184.0" type="qcurve"/>
      <point x="394.0" y="101.0"/>
      <point x="292.6666666666667" y="-10.0"/>
      <point x="216.33333333333331" y="-10.0" type="qcurve"/>
      <point x="139.0" y="-10.0"/>
      <point x="36.666666666666664" y="101.0"/>
      <point x="36.666666666666664" y="184.0" type="qcurve"/>
      <point x="36.666666666666664" y="269.6666666666667"/>
      <point x="136.33333333333334" y="379.0"/>
      <point x="216.33333333333331" y="379.0" type="qcurve"/>
      <point x="295.3333333333333" y="379.0"/>
      <point x="394.0" y="269.6666666666667"/>
    </contour>
    <contour>
      <point x="165.33333333333331" y="184.0" type="qcurve"/>
      <point x="165.33333333333331" y="144.66666666666666"/>
      <point x="192.0" y="96.66666666666666"/>
      <point x="216.33333333333331" y="96.66666666666666" type="qcurve"/>
      <point x="239.66666666666666" y="96.66666666666666"/>
      <point x="265.3333333333333" y="144.66666666666666"/>
      <point x="265.3333333333333" y="184.0" type="qcurve"/>
      <point x="265.3333333333333" y="224.0"/>
      <point x="239.66666666666666" y="272.3333333333333"/>
      <point x="216.33333333333331" y="272.3333333333333" type="qcurve"/>
      <point x="193.0" y="272.3333333333333"/>
      <point x="165.33333333333331" y="224.0"/>
    </contour>
  </outline>
</glyph>
